<?xml version="1.0" encoding="utf-8"?>
<!-- Generator: Adobe Illustrator 25.2.3, SVG Export Plug-In . SVG Version: 6.00 Build 0)  -->
<svg version="1.1" id="Capa_1" xmlns="http://www.w3.org/2000/svg" xmlns:xlink="http://www.w3.org/1999/xlink" x="0px" y="0px"
	 viewBox="0 0 185 185" style="enable-background:new 0 0 185 185;" xml:space="preserve">
<style type="text/css">
	.st0{fill:#1B1464;}
	.st1{fill:#BFBFBF;}
	.st2{fill:none;stroke:#1B1464;stroke-width:8;stroke-miterlimit:10;}
</style>
<g id="KICPTu">
	<path class="st0" d="M67,145.3c-5.3,0.1-10.5-1.1-15.3-3.3c-3.8-1.8-7-4.6-9.3-8.2c-1.7-2.8-2.7-5.9-2.9-9.2
		c-0.3-3.5,0.3-7.1,1.7-10.4c1.1-2.6,2.7-5,4.6-7.1c2.4-2.5,4.9-4.9,7.6-7.1c1.7-1.4,3.2-2.9,4.5-4.6c0.3-0.3,0.3-0.9,0-1.2
		c-1.4-1.7-1.2-4.3,0.5-5.7c0.1-0.1,0.2-0.1,0.3-0.2c0.4-0.3,0.3-0.6,0.2-1c-1.2-2.5-2.6-4.9-4.4-7c-0.9-1.2-1.9-2.3-2.9-3.5
		C50.7,76,50.5,74.9,51,74c0.5-0.9,1.5-1.5,2.6-1.3c2.8,0.4,5.5,1.3,7.9,2.8c0.2,0.1,0.4,0.3,0.6,0.2s0.1-0.4,0.1-0.7
		c-0.2-1-0.2-2-0.2-3c0.1-1.5,1.4-2.7,2.9-2.6c0.2,0,0.4,0,0.5,0.1c1.8,0.6,3.4,1.7,4.6,3.2c0.4,0.4,0.6,1.3,1.2,1.3s0.9-0.6,1.3-1
		c1.3-1.1,2.7-2.1,4.3-2.9c1.3-0.9,3.1-0.6,4,0.7c0.7,1,0.7,2.3,0,3.3c-2.1,4.1-3.9,8.4-5.4,12.8c-0.2,0.5,0,1.1,0.5,1.3
		c0,0,0,0,0,0c1.9,1.2,2.4,3.7,1.2,5.6c-0.1,0.1-0.1,0.2-0.2,0.3c-0.7,1-0.7,1,0,1.9c1.5,1.7,3.1,3.3,4.8,4.7c2,1.7,4,3.4,5.8,5.3
		c3.5,3.7,6.2,8,6.9,13.2c1,5.4-0.2,10.9-3.3,15.4c-2.2,3.1-5.1,5.5-8.4,7.2c-4.1,2-8.6,3.2-13.1,3.4c-0.4,0-0.9,0.1-1.3,0.1H67z
		 M66.8,141.5c1.1,0,2.2,0,3.4-0.1c4.6-0.3,9-1.7,12.8-4.1c6.2-4,8.8-10.3,7.7-17.5C90,115.7,88,111.9,85,109
		c-2.4-2.5-5-4.6-7.6-6.9c-1.8-1.5-3.4-3.2-4.6-5.2c-0.1-0.3-0.5-0.4-0.8-0.3c-3.2,0.8-6.5,0.8-9.7-0.1c-0.4-0.2-1,0-1.1,0.5
		c0,0,0,0,0,0c-0.9,1.5-2,2.8-3.3,4c-1.9,1.8-3.9,3.4-5.8,5.1c-2.3,1.9-4.2,4.1-5.9,6.6c-1.6,2.5-2.6,5.4-2.9,8.4
		c-0.3,2.9,0.1,5.8,1.2,8.5c1.9,4.5,5.3,7.4,9.6,9.4C58.1,140.7,62.4,141.6,66.8,141.5L66.8,141.5z M57.2,77.5
		c2.1,2.6,3.8,5.5,5.2,8.5c0.1,0.3,0.3,0.4,0.3,0.8c0,0.5,0.3,1,0.7,1.1c2.1,0.8,4.4,0.9,6.5,0.4c0.8-0.1,1.4-0.7,1.5-1.6
		c0.4-1.7,0.9-3.4,1.6-5c0.6-1.7,1.4-3.3,2.2-4.9c0.3-0.6,0.6-1.3,0.9-2c-0.3,0.1-0.6,0.2-0.8,0.5c-1,0.8-1.9,1.7-2.8,2.6
		c-0.7,0.9-2,1-2.9,0.3c-0.1-0.1-0.2-0.2-0.3-0.3c-0.4-0.4-0.7-0.9-1-1.4c-0.6-1-1.4-2-2.4-2.8c0.1,0.7,0.1,1.3,0.2,1.9
		c0.2,1.2,0.1,2.4-0.2,3.6c-0.2,0.9-1,1.6-2,1.6c-0.6,0-1.2-0.2-1.7-0.6C60.6,79.2,58.9,78.3,57.2,77.5L57.2,77.5z M67.8,93.4
		c1,0,2-0.1,2.9-0.4c0.9-0.2,1.8-0.5,2.7-1c0.3-0.2,0.5-0.3,0.3-0.7s-0.4-0.2-0.7-0.1c-0.1,0-0.2,0.1-0.2,0.1
		c-1.7,0.8-3.6,1.1-5.5,1.1c-2,0-4-0.4-5.8-1.2c-0.3-0.1-0.6-0.2-0.8,0.2s0.2,0.5,0.5,0.6C63.2,93,65.5,93.4,67.8,93.4z"/>
	<path class="st0" d="M139.5,94.4v34.1c0.1,5.1-3.9,9.3-9.1,9.5c-0.1,0-0.2,0-0.3,0c-3.4,0-6.8,0-10.2,0H96.4c-0.4,0-0.7,0-1.1-0.1
		c-1-0.2-1.7-1.2-1.5-2.2c0.1-0.8,0.7-1.4,1.5-1.5c0.3,0,0.6-0.1,0.8-0.1h21.3c4.1,0,8.2-0.1,12.2,0.1c3.2,0.2,5.9-2.2,6.1-5.4
		c0-0.2,0-0.5,0-0.7c-0.1-3.3,0-6.5,0-9.8V68.7c0-2.8,0-5.6,0-8.4c0.1-1.8-0.7-3.4-2-4.6c-1.1-0.9-2.5-1.4-3.9-1.3H84.6
		c-3.1-0.1-5.8,2.3-5.9,5.4c0,0.1,0,0.3,0,0.4c0,1.6,0,3.2,0,4.8c0.1,1-0.7,1.9-1.7,2c0,0-0.1,0-0.1,0c-1.1,0-1.9-0.9-1.8-2
		c0,0,0,0,0-0.1c-0.1-2.2-0.1-4.4,0.1-6.6c0.7-4.4,4.4-7.6,8.9-7.7c15.6,0,31.1,0,46.7,0c4.4,0.2,8.1,3.5,8.8,7.9
		c0.2,1.9,0.2,3.8,0.1,5.7C139.6,74.3,139.6,84.4,139.5,94.4L139.5,94.4z"/>
	<path class="st0" d="M107.2,78.3H86.7c-2.5,0-3.7-1.2-3.7-3.7v-12c0-2.4,1.2-3.6,3.7-3.6h41.3c2.4,0,3.6,1.2,3.6,3.6
		c0,4.1,0,8.2,0,12.2c0.1,1-0.3,2-1.1,2.7c-0.6,0.6-1.5,0.9-2.4,0.8L107.2,78.3z M107.2,62.6h-19c-1.8,0-1.5-0.2-1.5,1.4
		c0,3.2,0,6.4,0,9.6c0,0.9,0,0.9,0.9,0.9c13.1,0,26.1,0,39.2,0c0.7,0,0.9-0.2,0.9-0.9c0-3.4,0-6.7,0-10.1c0-1,0-1-1-1L107.2,62.6z"
		/>
	<path class="st0" d="M107.2,112.2c-1.2,0-2.3,0-3.5,0c-1.8,0.1-3.3-1.3-3.3-3.1c0-0.1,0-0.1,0-0.2c0-2.2,0-4.4,0-6.6
		c0-1.8,1.3-3.2,3.1-3.2c0,0,0.1,0,0.1,0c2.4,0,4.9,0,7.3,0c1.8-0.1,3.2,1.3,3.3,3.1c0,0.1,0,0.2,0,0.3c0,2.1,0,4.2,0,6.4
		c0.1,1.8-1.2,3.3-3,3.5c-0.2,0-0.3,0-0.5,0C109.5,112.2,108.3,112.2,107.2,112.2z M107.2,108.4c0.8,0,1.6,0,2.4,0
		c0.5,0,0.7-0.2,0.7-0.7c0-1.4,0-2.8,0-4.3c0-0.5-0.2-0.7-0.7-0.7c-1.7,0-3.3,0-5,0c-0.5,0-0.7,0.2-0.7,0.7c0,1.4,0,2.9,0,4.3
		c0,0.4,0.2,0.6,0.6,0.6C105.6,108.4,106.4,108.4,107.2,108.4z"/>
	<path class="st0" d="M124.5,112.2c-1.2,0-2.3,0-3.5,0c-1.8,0.1-3.3-1.3-3.4-3.1c0-0.1,0-0.2,0-0.3c0-2.2,0-4.3,0-6.5
		c-0.1-1.8,1.3-3.2,3.1-3.3c0.1,0,0.1,0,0.2,0c2.4,0,4.8,0,7.3,0c1.8-0.1,3.3,1.4,3.4,3.1c0,0.1,0,0.2,0,0.2c0,2.1,0,4.2,0,6.3
		c0.1,1.8-1.2,3.4-3,3.5c-0.2,0-0.3,0-0.5,0H124.5z M124.5,102.8c-0.9,0-1.7,0-2.6,0c-0.4,0-0.6,0.1-0.6,0.6c0,1.5,0,2.9,0,4.4
		c0,0.4,0.2,0.6,0.6,0.6h5.1c0.4,0,0.7-0.2,0.6-0.6c0-1.4,0-2.9,0-4.3c0-0.5-0.2-0.7-0.7-0.7C126.2,102.8,125.4,102.8,124.5,102.8
		L124.5,102.8z"/>
	<path class="st0" d="M124.6,114.9h3.6c1.8-0.1,3.3,1.2,3.4,3c0,0.1,0,0.2,0,0.3c0,2.2,0,4.4,0,6.6c0,1.8-1.3,3.2-3.1,3.2
		c-0.1,0-0.2,0-0.3,0h-7.2c-1.7,0.1-3.2-1.2-3.3-2.9c0-0.1,0-0.1,0-0.2c0-2.3,0-4.7,0-7c0-1.7,1.4-3,3.1-3
		C122,114.9,123.3,114.9,124.6,114.9L124.6,114.9z M124.6,124.3c0.8,0,1.6,0,2.4,0c0.6,0,0.8-0.2,0.8-0.8c0-1.4,0-2.8,0-4.1
		c0-0.6-0.2-0.8-0.8-0.8c-1.6,0-3.1,0-4.7,0c-0.8,0-0.9,0.2-0.9,0.9c0.1,1.4,0.1,2.8,0,4.2c0,0.5,0.2,0.6,0.6,0.6
		C122.8,124.3,123.7,124.3,124.6,124.3L124.6,124.3z"/>
	<path class="st0" d="M89.8,96.2h-3.6c-1.7,0-3.1-1.3-3.2-3c0,0,0-0.1,0-0.1c-0.1-2.3,0-4.6,0-6.8c0-1.7,1.4-3.1,3.1-3.1
		c0,0,0.1,0,0.1,0c2.5,0,5,0,7.5,0c1.7-0.1,3.1,1.2,3.1,2.9c0,0,0,0.1,0,0.1c0.1,2.3,0.1,4.7,0,7.1c0,1.7-1.3,3-3,3
		c-0.1,0-0.1,0-0.2,0L89.8,96.2z M89.9,86.9c-0.8,0-1.7,0-2.5,0c-0.5,0-0.7,0.2-0.7,0.7c0,1.5,0,2.9,0,4.4c0,0.5,0.2,0.7,0.7,0.7
		c1.7,0,3.3,0,5,0c0.5,0,0.7-0.2,0.7-0.7c0-1.5,0-2.9,0-4.4c0-0.5-0.2-0.7-0.7-0.6C91.5,86.9,90.7,86.8,89.9,86.9z"/>
	<path class="st0" d="M107.2,96.2c-1.2,0-2.5,0-3.7,0c-1.7,0-3.1-1.4-3.2-3.1c0,0,0,0,0,0c0-2.3,0-4.6,0-6.9c0-1.7,1.4-3.1,3.1-3.1
		c0,0,0.1,0,0.1,0c2.5,0,4.9,0,7.4,0c1.7-0.1,3.1,1.1,3.2,2.8c0,0.1,0,0.2,0,0.3c0.1,2.3,0.1,4.6,0,6.8c0,1.7-1.3,3.1-3,3.2
		c-0.1,0-0.2,0-0.3,0L107.2,96.2z M107.3,86.8c-0.9,0-1.7,0-2.6,0c-0.5,0-0.6,0.2-0.6,0.6c0,1.5,0,3,0,4.5c0,0.4,0.2,0.6,0.6,0.6
		c1.7,0,3.4,0,5.1,0c0.4,0,0.6-0.2,0.6-0.6c0-1.5,0-2.9,0-4.4c0-0.5-0.2-0.7-0.7-0.7C108.9,86.9,108.1,86.8,107.3,86.8z"/>
	<path class="st0" d="M107.2,128c-1.2,0-2.3,0-3.5,0c-1.7,0.1-3.2-1.2-3.4-2.9c0-0.1,0-0.3,0-0.4c0-2.2,0-4.4,0-6.6
		c-0.1-1.7,1.3-3.2,3-3.2c0.1,0,0.3,0,0.4,0h7.2c1.7-0.1,3.2,1.2,3.3,2.9c0,0.1,0,0.2,0,0.3c0.1,2.3,0.1,4.6,0,6.8
		c0,1.7-1.4,3.1-3.1,3.1c0,0,0,0-0.1,0H107.2L107.2,128z M107.3,124.3h2.6c0.3,0,0.6-0.1,0.6-0.5c0-1.6,0-3.1,0-4.7
		c0-0.4-0.2-0.5-0.6-0.5h-5.2c-0.4,0-0.6,0.2-0.6,0.6c0,1.5,0,3,0,4.6c0,0.4,0.2,0.6,0.6,0.6L107.3,124.3z"/>
	<path class="st0" d="M124.6,96.2c-1.3,0-2.5,0-3.8,0c-1.7,0-3.1-1.3-3.1-3c0,0,0-0.1,0-0.1c0-2.2,0-4.4,0-6.6
		c-0.1-1.7,1.2-3.2,3-3.3c0.1,0,0.3,0,0.4,0c2.4,0,4.8,0,7.3,0c1.7-0.1,3.2,1.3,3.3,3c0,0.1,0,0.1,0,0.2c0,2.2,0,4.5,0,6.7
		c0,1.8-1.4,3.2-3.1,3.2c-0.1,0-0.1,0-0.2,0H124.6z M124.6,86.8L124.6,86.8c-0.8,0-1.6,0-2.4,0c-0.5,0-0.8,0.2-0.8,0.7
		c0,1.5,0.1,3,0.1,4.5c0,0.3,0.2,0.4,0.5,0.4h5.2c0.4,0,0.6-0.2,0.6-0.6c0-1.5,0-3,0-4.5c0-0.4-0.2-0.6-0.6-0.6
		C126.2,86.9,125.4,86.8,124.6,86.8L124.6,86.8z"/>
	<path class="st0" d="M96.8,105.5c0,1.1,0,2.2,0,3.2c0.1,1-0.7,2-1.7,2.1c-1,0.1-2-0.7-2.1-1.7c0-0.1,0-0.2,0-0.3c0-1.6,0-3.3,0-4.9
		c0-1.1,0-1.1-1.1-1.1c-1.4,0-2.9,0-4.3,0c-1.1,0.1-2-0.8-2-1.8c0-0.3,0-0.5,0.1-0.8c0.3-0.7,1-1.2,1.8-1.2c2,0,4.1,0,6.2,0
		c1.7,0,3.2,1.4,3.2,3.1c0,0.1,0,0.1,0,0.2C96.8,103.4,96.8,104.4,96.8,105.5z"/>
	<path class="st0" d="M65.2,125.9c0-1,0-2,0-3c0.1-0.4-0.2-0.7-0.6-0.8c0,0,0,0-0.1,0c-1.5-0.3-3-1-4.2-2c-2.8-2.5-3-6.7-0.5-9.5
		c0,0,0.1-0.1,0.1-0.1c1.1-1.2,2.6-2.1,4.2-2.6c1-0.3,1-0.3,1-1.4c0-0.3,0-0.7,0.1-1c0.2-0.8,1-1.4,1.8-1.4c0.8,0,1.5,0.6,1.7,1.4
		c0.1,0.4,0.2,0.9,0.1,1.3c-0.1,0.4,0.1,0.9,0.6,1c0.1,0,0.1,0,0.2,0c1.7,0.4,3.3,1.3,4.5,2.6c0.4,0.4,0.7,0.8,0.9,1.3
		c0.6,0.9,0.3,2-0.5,2.6c-0.9,0.6-2,0.3-2.6-0.5c0-0.1-0.1-0.1-0.1-0.2c-0.6-0.9-1.4-1.5-2.3-1.9c-0.4-0.2-0.6-0.1-0.6,0.4
		c0,2.1,0,4.2,0,6.3c0,0.5,0.3,0.7,0.7,0.8c1.4,0.3,2.7,0.8,3.8,1.6c2.9,2.5,3.3,6.9,0.9,9.8c-1.2,1.4-2.8,2.4-4.6,2.8
		c-0.6,0.1-0.9,0.5-0.8,1.1c0.1,0.5,0,1-0.2,1.5c-0.3,0.6-1,1.1-1.7,1c-0.8,0-1.5-0.6-1.7-1.4c-0.1-0.1-0.1-0.2-0.1-0.3
		c0.2-1.4-0.5-1.8-1.7-2.2c-1.9-0.6-3.6-1.9-4.5-3.6c-0.6-0.9-0.4-2,0.5-2.6c0.1-0.1,0.3-0.2,0.5-0.2c0.8-0.3,1.7,0,2.2,0.8
		c0.5,0.9,1.3,1.6,2.2,2.1c0.7,0.3,0.9,0.3,0.9-0.5C65.2,127.9,65.2,126.9,65.2,125.9z M69,126.2c0,0.7,0,1.4,0,2.1
		c0,0.4-0.2,1,0.2,1.2s0.9-0.1,1.3-0.4c1.2-0.6,1.9-1.8,1.8-3.1c0-1.4-1.1-2.6-2.5-2.9c-0.8-0.2-0.8-0.2-0.8,0.6S69,125.3,69,126.2
		L69,126.2z M65.2,115L65.2,115c0-1,0-1.9,0-2.9c0-0.2,0.1-0.5-0.4-0.5c-1.4,0.4-2.5,1.7-2.8,3.2c-0.1,1.6,1.1,3.1,2.7,3.4
		c0.4,0.1,0.5-0.1,0.5-0.4L65.2,115z"/>
	<path class="st0" d="M85.8,122.5c1,0,1.8,0.7,1.9,1.7c0,0.2,0,0.3,0,0.5c-0.6,3.6-2.4,7-5.1,9.5c-0.8,0.8-2,0.8-2.7,0c0,0,0,0,0,0
		c-0.7-0.8-0.6-2,0.2-2.7c2.1-1.9,3.6-4.5,4.1-7.4C84.1,123.1,84.9,122.4,85.8,122.5C85.8,122.5,85.8,122.5,85.8,122.5z"/>
</g>
<g>
	<path class="st1" d="M92.5,2C142.4,2,183,42.6,183,92.5S142.4,183,92.5,183S2,142.4,2,92.5S42.6,2,92.5,2 M92.5,0
		C41.4,0,0,41.4,0,92.5S41.4,185,92.5,185S185,143.6,185,92.5S143.6,0,92.5,0L92.5,0z"/>
</g>
<circle class="st2" cx="92.5" cy="92.5" r="78"/>
</svg>
