<?xml version="1.0" encoding="utf-8"?>
<!-- Generator: Adobe Illustrator 25.2.3, SVG Export Plug-In . SVG Version: 6.00 Build 0)  -->
<svg version="1.1" id="Capa_1" xmlns="http://www.w3.org/2000/svg" xmlns:xlink="http://www.w3.org/1999/xlink" x="0px" y="0px"
	 viewBox="0 0 185 185" style="enable-background:new 0 0 185 185;" xml:space="preserve">
<style type="text/css">
	.st0{fill:#EB5C37;}
	.st1{fill:#BFBFBF;}
	.st2{fill:none;stroke:#EB5C37;stroke-width:8;stroke-miterlimit:10;}
</style>
<g id="l9rsJu">
	<path class="st0" d="M61.2,82.3c0.8-1.1,1.7-2.1,2.6-3.1c2.2-2.2,3.5-2.1,5.7,0c0.9,0.8,1.8,1.7,2.6,2.6c0.9,1.1,1.6,1,2.5,0
		c3-3.1,6-6.1,9.1-9.2c2.2-2.2,3.9-2.2,6.1,0c4.2,4.2,8.4,8.3,12.5,12.5c0.7,0.7,1.2,1.4,2.3,0.3c7.9-7.9,15.9-15.8,23.8-23.6
		c0.1-0.1,0.1-0.2,0.2-0.3c-0.2-0.6-0.7-0.3-1.1-0.4c-1.7-0.5-2.8-1.8-2.5-3.4c0.1-1.6,1.4-2.8,2.9-2.9c3-0.1,6-0.1,8.9,0.1
		c2,0.1,3.1,1.4,3.1,3.5c0.1,2.7,0,5.5,0,8.2c0.1,1.6-1,3-2.5,3.2c-1.6,0.4-3.2-0.6-3.6-2.1c0,0,0,0,0-0.1c-0.5-1.6-1-1.2-1.8-0.3
		c-4.2,4.2-8.4,8.4-12.5,12.5c-4.4,4.3-8.8,8.6-13.1,12.9c-2,2-3.6,2-5.6,0c-4.2-4.2-8.4-8.2-12.4-12.4c-1.4-1.5-2.2-1.2-3.4,0.1
		c-2.8,3-5.8,5.8-8.6,8.8c-2.1,2.2-3.7,2.2-5.8,0c-0.7-0.7-1.4-1.3-2.1-1.9c-1.8-1.7-1.8-1.8-3.6,0c-1.1,1.1-2.2,2.2-3.3,3.3
		c-0.7,0.6-1.1,1.5-1,2.5c0,6.3,0,12.6,0,18.9c0,1.4,0.5,1.9,1.9,1.8c1.6-0.1,3.1-0.1,4.7,0c1.4,0.1,2-0.4,2-1.9
		c-0.1-4.2,0-8.5,0-12.7c0-0.6,0-1.2,0.1-1.9c0.2-1.4,1.4-2.5,2.8-2.5c1.4-0.2,2.8,0.7,3.1,2.1c0.3,0.8,0.4,1.7,0.3,2.6
		c0,4.1,0,8.2,0,12.3c0,1.4,0.4,2.1,1.9,2c1.7-0.1,3.4-0.1,5,0c1.5,0.1,1.9-0.5,1.9-1.9c0-7,0-13.9,0-20.9c0-0.6,0-1.3,0-1.9
		c0-1.4,1.2-2.6,2.6-2.7c1.4-0.3,2.8,0.5,3.3,1.8c0.4,0.9,0.5,1.8,0.4,2.7c0,6.8,0,13.7-0.1,20.5c0,1.8,0.5,2.5,2.4,2.4
		c1.6-0.1,3.2-0.1,4.8,0c1.3,0.1,1.8-0.5,1.7-1.8c-0.1-2.9,0-5.7,0-8.6c0-2.3,1.1-3.7,3-3.8c1.8-0.1,3,1.1,3.3,3.3
		c0.3,2.8,0.3,5.7,0.1,8.6c-0.1,1.7,0.5,2.4,2.3,2.2c0.6,0,1.2,0,1.9,0c3.4,0,3.4,0,3.4-3.5c0-4,0-8,0-11.9c0-1.1,0-2.1,0-3.1
		c0-3,1.2-4.6,3.3-4.6s3.1,1.5,3.1,4.6c0,5.5,0,10.9-0.1,16.4c0,1.6,0.5,2.2,2.1,2.1c1.8-0.1,3.6-0.1,5.4,0c2.5,0,3.8,1.1,3.9,3.5
		c0.1,3,0.2,6,0,8.9c-0.1,3-1.4,4-4.4,4.1c-10.6,0-21.1,0-31.7,0H59.5c-0.7,0-1.4,0-2.1,0c-2.1-0.2-3.5-1.5-3.4-3.2
		c0.1-1.9,1.5-3.1,3.7-3.1c5.2,0,10.3,0,15.5,0c16.5,0,33.1,0,49.6,0c1.5,0,2.2-0.3,2.1-1.9c-0.1-1.3-0.6-1.7-1.8-1.7
		c-3.6,0-7.2,0-10.8,0H59.9c-0.7,0-1.4,0-2.1,0c-2.6-0.2-3.8-1.4-3.8-4c0-11.6,0-23.1,0-34.7c0-7.4,0-14.8,0-22.2
		c0-0.6,0-1.1,0.1-1.7c0.2-1.4,1.4-2.5,2.8-2.5c1.4-0.2,2.8,0.7,3.2,2.1c0.3,1.1,0.4,2.2,0.3,3.3c0,7.1,0,14.3,0,21.4L61.2,82.3z"/>
</g>
<g>
	<path class="st1" d="M92.5,2C142.4,2,183,42.6,183,92.5S142.4,183,92.5,183S2,142.4,2,92.5S42.6,2,92.5,2 M92.5,0
		C41.4,0,0,41.4,0,92.5S41.4,185,92.5,185S185,143.6,185,92.5S143.6,0,92.5,0L92.5,0z"/>
</g>
<circle class="st2" cx="92.5" cy="92.5" r="78"/>
</svg>
