<?xml version="1.0" encoding="utf-8"?>
<!-- Generator: Adobe Illustrator 25.2.3, SVG Export Plug-In . SVG Version: 6.00 Build 0)  -->
<svg version="1.1" id="Capa_1" xmlns="http://www.w3.org/2000/svg" xmlns:xlink="http://www.w3.org/1999/xlink" x="0px" y="0px"
	 viewBox="0 0 185 185" style="enable-background:new 0 0 185 185;" xml:space="preserve">
<style type="text/css">
	.st0{fill:#33AA4E;}
	.st1{fill:#BFBFBF;}
	.st2{fill:none;stroke:#33AA4E;stroke-width:8;stroke-miterlimit:10;}
</style>
<g id="Capa_1-2">
	<path class="st0" d="M144.7,66.8c0-5.4-3.2-8.6-8.6-8.7c-0.6,0-1.1,0-1.7,0c-1.2,0.2-2.3-0.7-2.5-1.9c0-0.1,0-0.2,0-0.2
		c-0.5-2.9-1.1-5.8-1.8-8.7c-1.3-5.8-4.9-8-10.6-6.4L63.3,56.4c-5.9,1.6-8.5,5-8.5,11.1c0,9.5-0.1,19,0.1,28.4
		c0.2,2.5-1.1,4.8-3.3,5.9c-9,5.4-12.8,14.9-10.5,24.8c2.1,9.2,10.5,16.4,19.9,17.7c9.7,1.4,19.2-3.2,24.2-11.6
		c0.8-1.8,2.7-2.9,4.7-2.7c15.3,0.1,30.7,0,46,0c5.9,0,9-3,9-9c0-9,0-18,0-26.9C144.7,85,144.7,75.9,144.7,66.8z M77.5,56.7
		c14.6-4,29.2-8.1,43.8-12.1c2.9-0.8,4.1-0.1,4.8,2.9c0.6,2.6,1,5.2,1.6,7.7c0.6,2.2-0.1,2.9-2.4,2.9c-8.2-0.1-16.3,0-24.4,0H75.1
		C75.8,56.8,76.7,56.9,77.5,56.7z M64.1,140.7c-11-0.1-19.9-8.6-19.9-19.1c0-11.3,8.6-19.6,20.1-19.6c11.2,0,20.1,8.7,20,19.3
		c-0.2,10.9-9.2,19.6-20.1,19.4C64.2,140.7,64.2,140.7,64.1,140.7L64.1,140.7z M140.6,122.6c-0.4,2.8-1.3,3.7-4.2,3.8
		c-4.2,0.1-8.4,0-12.6,0H91.1c-3.1,0-3.2-0.1-2.9-3.2c1-12.3-9.4-24.3-21.7-24.9c-1.6-0.2-3.3-0.2-4.9,0c-2.3,0.3-3-0.4-3-2.8
		c0.1-9.4,0.1-18.8,0.1-28.2c0-4.2,1.1-5.2,5.3-5.3h35.8c11.7,0,23.4,0,35.1,0c4.6,0,5.3,0.5,5.7,5.1c0.3,3.4,0.2,6.9,0.2,10.4
		c0,2.9-0.4,3.3-3.3,3.3c-6.2,0-12.4,0-18.5,0c-4.2,0-4.3,0.1-4.3,4.3c0,6.6,0.1,13.2,0,19.8c0,2.4,0.9,3.2,3.2,3.2
		c6.5-0.1,13,0,19.5,0c3,0,3.4,0.4,3.4,3.5C140.8,115.1,141.1,118.8,140.6,122.6L140.6,122.6z M118.6,87.1c0-1.8,0.8-2.5,2.6-2.5
		c5.7,0,11.4,0,17.1,0c1.7,0,2.4,0.7,2.4,2.3c0,4.9,0,9.9,0,14.8c0,1.7-0.7,2.4-2.4,2.3c-2.9,0-5.8,0-8.6,0s-5.6,0-8.4,0
		c-1.8,0-2.6-0.7-2.6-2.5C118.6,96.8,118.5,91.9,118.6,87.1L118.6,87.1z"/>
	<path class="st0" d="M72.3,119.4c-5.3,0-10.7,0-16,0c-1.3,0-2.6,0.2-2.6,1.9s1.3,1.9,2.7,1.9h15.8c1.3,0,2.6-0.2,2.7-1.8
		S73.6,119.4,72.3,119.4z"/>
	<path class="st0" d="M129.6,97.9c1.8-0.1,3.2-1.6,3.2-3.4c0.1-1.8-1.2-3.4-3-3.6c-1.6-0.1-3,1.5-3.1,3.5S127.9,97.8,129.6,97.9z"/>
</g>
<g>
	<path class="st1" d="M92.5,2C142.4,2,183,42.6,183,92.5S142.4,183,92.5,183S2,142.4,2,92.5S42.6,2,92.5,2 M92.5,0
		C41.4,0,0,41.4,0,92.5S41.4,185,92.5,185S185,143.6,185,92.5S143.6,0,92.5,0L92.5,0z"/>
</g>
<circle class="st2" cx="92.5" cy="92.5" r="78"/>
</svg>
