<svg xmlns="http://www.w3.org/2000/svg" viewBox="0 0 106.08 149.99"><defs><style>.cls-1,.cls-2{fill:#8d91a0;}.cls-1{fill-rule:evenodd;}</style></defs><g id="Capa_2" data-name="Capa 2"><g id="Capa_2-2" data-name="Capa 2"><path class="cls-1" d="M41.06,141.74v-.15l.15.1-.15.05Zm64.87-97.29a9.44,9.44,0,0,0-.3-1.64c-1-3.43-6.86-4.37-6.81.25a2.16,2.16,0,0,0,2.09,2.33c0-.64-.74-2.13.15-3a1.42,1.42,0,0,1,1.39-.2c1.14.6,1.69,3.93-.7,5a2.08,2.08,0,0,1-1.39.3,9.38,9.38,0,0,1-3.22-2.34,8.36,8.36,0,0,1-.85-1.09,17.32,17.32,0,0,0-2.53-3.13c-.65-.64-.7-.44-1-.94,8.34,0,8.89-7.25,4.56-9.68-2.43-1.4-6-.95-6,2.33,0,1.54.25,2.43,1.94,2.93,1.89.6,2.78-.35,3.78-1,0,1.29.1,1.49-.65,2.13a3.63,3.63,0,0,1-2.14.65c-.69,0-.79.1-1.24.15-.64,0-.59-.15-1.24-.15-.89-.05-1.89,0-2.78,0a10.46,10.46,0,0,0-1.69-1.64l-1.89-1.44c1.79,0,3.68-.45,4.57-1.94,1.15-1.84,1.25-2.73,0-4.62a5.75,5.75,0,0,0-.64-.89l-.8-.85c-2.18-2-5.56-1.44-7.94-.89-1.29.3-6.81,1.34-8.3,1.44-3.47.15-4.67.75-9.23-.05-1-.15-1.79-.4-2.59-.59a7.33,7.33,0,0,1-1.78-.75l-.55-.3c1-.25,2-.59,3.08-.84a27.7,27.7,0,0,1,7.1-.45,31.81,31.81,0,0,1,3.48.55c-.1-.4,0-.25-.35-.5L68.68,22.3c-.5-.15-.75-.25-1.29-.4-3.53-.89-4.87.05-6,.05a14.23,14.23,0,0,1,2.53-1.74,18.06,18.06,0,0,1,6.75-2.13c.8,0,1.15-.15,2.09-.15a7.92,7.92,0,0,1,1.09,0c.55.05.35.15,1,.15v-.3a8.75,8.75,0,0,1-1.44-.65c-.45-.19-1.1-.44-1.49-.59a9.69,9.69,0,0,0-1.79-.3c-2.14-.2-.5,0-1.94,0a9.91,9.91,0,0,0-3.28.89l-2.83,1.49c1.15-1.68,5.52-5,7.75-6.15a10.93,10.93,0,0,1,2.68-1.25v-.29a41.69,41.69,0,0,0-6.16,1c-2,.5-4.76,1.74-5.36,1.89A58.42,58.42,0,0,1,65.9,6.8l1.59-1.88c.19-.3.15,0,.05-.2-.25-.1-.3.1-1,.49a25.75,25.75,0,0,0-5.61,4.42l-.74.8c-.5.45-.35.55-1,1a26.7,26.7,0,0,1,.75-4.81,42.35,42.35,0,0,1,1.19-4.38c-.5.15-1.39,1.3-1.74,1.74a11.46,11.46,0,0,0-.74.9C57.55,6.36,56.36,8,55.42,9.59l-.35.49,0,.05L54.18,5c-.15-.8-.3-1.69-.45-2.59-.1-.59-.2-2.13-.6-2.43L51.35,10.28A21.63,21.63,0,0,1,49.71,7.9c-1-1.29-2.24-3.23-3.43-4.67l-.89-1c-.7-.9-.55-.95-1-1a11.1,11.1,0,0,1,.4,1.14c.79,2.34,2.38,6.81,2.38,9a22.85,22.85,0,0,1-2-1.88L42,6.66a6.73,6.73,0,0,0-1.09-.85,9.29,9.29,0,0,0-2.44-1.59,2.15,2.15,0,0,0,.45.5l3.43,4.22c.19.25.24.3.44.55a31.43,31.43,0,0,1,3.08,4.56L43.1,12.91a41.49,41.49,0,0,0-6.21-1.59,21.16,21.16,0,0,0-3.57-.49l8.49,5a10.8,10.8,0,0,1,2.38,2.78c-1.34-.1-5.91-3.27-10.08-2.13a6.32,6.32,0,0,0-2.88,1.44,41.59,41.59,0,0,1,4.42.15,21.57,21.57,0,0,1,7,2.48,5,5,0,0,0,.7.4,5,5,0,0,1,.74.49l1.4.95L40.92,22c-2,.2-4.23.45-5.91,1.64-.6.4-.2-.05-.4.45,2.63-1.24,6.65-.75,9.68-.1,1,.2,2,.59,2.93.79-1,1.54-6.3,2-7.74,1.79l-3.08-.25c-2-.1-8.69-1.14-11.38-1.54-2.38-.39-6-.39-8,1.14-.2.15-.2.2-.45.4a4.71,4.71,0,0,0,1.09,7.8c1.15.55,1.64.3,2.88.2L16.63,36.9c-.55.35-1.24.15-2,.2l-4,.3c-1.29-.15-1.69-1.34-1.69-2.78.6.14,1.84,1.24,3.58.94,1.19-.2,1.94-1.19,1.69-2.88-.4-2.34-3.63-3.18-6.06-2.19-3.83,1.49-2.29,7.4.84,8.65a10.25,10.25,0,0,0,3.83.74L8,46c-2.53,3.23-5,1.54-5.56-.25-.45-1.29.69-2.83,1.49-3.33.59-.39.69-.25,1.34-.2.34,1.59,0,1.94-.3,3.18,1.39,0,1.94-.89,2.08-2.08.35-2.93-2.13-4.22-4.37-2.73l-2,2.18C-1.2,46,.84,51.2,6.3,49.86c.7-.2.84-.44,1.49-.59-.1,1-3,5.71-1.24,14.2.94,4.67,2.43,7,5.61,9.83a1.9,1.9,0,0,0,.65.45c-.3.45-.5.8-.8,1.29l-.79,1.39c-.55,1-1.05,1.84-1.54,2.93C8.24,82.44,6.9,86.47,7.44,89.84A8.8,8.8,0,0,0,14,96.65c-.15.59-.55.79-.9,1.34-2.13,3.23-4.37,7-4.66,11-.3,3.78.69,7.2,2.88,9.49.29.3.24.4.49.64l2.59,2c-.95,1.79-2.69,6.26-2.14,9.24.94,5.21,4.42,6.6,9.68,7.55l5.57-.15a39.33,39.33,0,0,1,4.27-.05,9.22,9.22,0,0,1,1.39.15c1.84.15,3.82.1,4.57,1.24,0,1.54-1.69,1.89-2.93,2.18a23,23,0,0,1-4.72.6c.79,1.19,3.92,1.94,5.56,1.94a7.51,7.51,0,0,0,4.47-1.24l1.09-.85-1.09,4.87c.85,1.14,4.12,2.23,5.66,2.58a32.45,32.45,0,0,0,7.55.8,34.18,34.18,0,0,0,7.4-.8,16.35,16.35,0,0,0,5.91-2.43v-3.18c1.14,0,1.89.79,5,.15,1.39-.3,3.28-.9,3.57-2.24-.84,0-1.24.2-2.23.15a10.89,10.89,0,0,1-4-.84c-.65-.4-.85-.65-.85-1.69.35-.2.5-.3.9-.5,3.17-1.14,8.84-.69,11.87-1,1.34-.15,2.88.45,5.46-.1,7.6-1.49,8.24-8.39,5.71-14.85a13.6,13.6,0,0,1-.89-2c.74-.14,2.58-1.78,3.17-2.38a6.61,6.61,0,0,0,.5-.64c2.93-3.53,2.78-7.75,1.29-12.22A37.8,37.8,0,0,0,92.32,98a12.1,12.1,0,0,1-.9-1.44c1.59-.15,4.23-2.14,5.37-3.68,2.53-3.42,1.19-9-.35-12.46L95,77.33a5,5,0,0,1-.4-.7l-1.69-2.88c-.19-.35-.34-.4-.44-.79.25-.3.2-.2.54-.45l1.2-.89a11.72,11.72,0,0,0,2.68-2.74A13.45,13.45,0,0,0,99.52,63a22.13,22.13,0,0,0-1.14-11l-1.14-3.13a13.78,13.78,0,0,1,1.53.55c1.64.54,4,.94,5.42,0a4.64,4.64,0,0,0,1.89-3.78V44.45ZM64.51,137.17c-.9,0-5.37,1.39-8.74,1.39v.15a18.66,18.66,0,0,1,4.71,1c0,1.39-.24,1.73.55,2.53a3.69,3.69,0,0,1,.65.89c1.19,2.49-3.43,2.39-4.77,2.39,0-.8.15-1.15.15-2.09a4.47,4.47,0,0,0,2.93-.79c.29-.25.29-.35.39-.75a18.43,18.43,0,0,0-2.33-.6,22.6,22.6,0,0,0-2.68-.24,76.84,76.84,0,0,0-8.25.34c-1.88.35-4.86,1-5.91,2.59,6.06,3.22,11.72,4,18.48,1.93l2.18-.74,1.35-.6,2.63-1.29-.3-.25a4.11,4.11,0,0,1-1.94-2.33C63.22,139.51,64.06,138,64.51,137.17Zm0,0V137l.15.1-.15,0Zm-23.74-.3c2.23.55,5.36,1.54,7.65,1.54v.15A13.12,13.12,0,0,0,42,140.35a6.15,6.15,0,0,0-1.24-3.48Zm-10-1.88a7.67,7.67,0,0,1,.95-2.54c.49.25.89.55,1.49.85s1.19.5,1.69.74l-4.13,1Zm42.91-2.73a8.44,8.44,0,0,1,1,2.53,16.67,16.67,0,0,1-4-1l3.07-1.54Zm-21.3-2.69c5.16-1.29,5.76,6.31,1.84,7.16-5.37,1.14-5.77-6.16-1.84-7.16ZM26.61,132c-3.42,1-8,3.13-10.72-1.24a8.91,8.91,0,0,1-1-6.11,4,4,0,0,1,3.88-3.38L21.25,124a45.64,45.64,0,0,0,3.48,3.48l1.93,1.69c.15.15.05.1.2.29-.89.3-2.18.45-3,.8,1.19.55,2.34.45,2.78,1.74Zm15-3.88c-.4-.49-.2,0-.5-.69,1.15.25,2,.3,2.24.79l.89,5.17c.05,0,.05-.05.1-.05l.15-.15.05,0,3.33-4a6.14,6.14,0,0,1,2,.54.17.17,0,0,0-.1.05l-.65.2a32.62,32.62,0,0,0-1.34,6l.5.55a8.88,8.88,0,0,1-2.54-.55c.9-.74.6.75,1.34-2.58.25-1,.65-2.14.8-3.08a5.48,5.48,0,0,0-1,1.14c-.35.45-.7.75-1,1.19-.59.8-1.59,2.44-2.23,2-.45-.35-.7-5-1.24-5.71l-1.1,4.72c-.19,1.14.15.69.45,1.39l-2.18-.5c.89-.89.59.65,1.44-2.88a25.83,25.83,0,0,0,.64-3.48Zm39.78,2.09,0-.3-2.83-.64a.17.17,0,0,1,.05-.1c.45-.6.65-.55,1.09-1,1.44-1.24,6.06-5.61,6.76-7.15,5.41.25,4.72,6.81,3,9.59-1.74,2.93-4.92,2.93-8,2L79,131.91c-.2-.1-.1-.1-.2-.2a3.36,3.36,0,0,1,2.58-1.49Zm-19.86-1.74c3.42-.79,6.7-3,8.19-3.28l.7,1.59-.5.2c-.65-.54-.94-1.29-2.53-.25a31,31,0,0,0,1.44,3.33c.25.55.44,1,.74,1.64.55,1,.5.5,1.29.74a8.81,8.81,0,0,1-2.58,1.3c.15-.7.35-.2.45-.85s-2.24-5.26-2.44-5.61c-2.53,1.19-.89,1.29-1.63,2.23-.6.1-.35.2-.65-.54-.2-.45-.15-.4-.45-.65-.49.5-.25.9,0,1.69.3,1.34,1.1,4.12,1.2,5.17l-.5.14c-.4,0-2.43-2-3-2.43a31.15,31.15,0,0,0-2.83-2.33c.54,1.64.74,3.13,1.14,4.57.3,1,.5.64,1,.94-.1,0,0,.1-.24.15s-.15.05-.2.05l-.55.15a10.08,10.08,0,0,1-1.19.25c.3-.6.35-.15.5-.65s-1.25-5.56-1.35-5.91l-.74-.3a4.64,4.64,0,0,1,1.94-.54L61,131.51c.45.35.84.75,1.29,1.09a3,3,0,0,1,.6.55c.3.35.25.35.64.55-.15-.9-.49-1.89-.69-2.83-.9-3-.65-1.54-1.39-2.39Zm-31.09.9c.74-.45.59.39,1.39-.95.35-.59.64-1.09.94-1.69,1.44-2.73,1.74-2.18,1.09-3.52.9.2,3.93,2.23,5.17,2.78a3,3,0,0,1-.85,1.39l-.39-.2c.15-1.14,0-1.29-.8-1.74a12.54,12.54,0,0,0-1.64-.89L34,126.89a8,8,0,0,0,1.24.8c1,.34.4-.45,1.49-.1a4.78,4.78,0,0,1-1,1.79l-.4-1.1a11.38,11.38,0,0,0-1.59-.89L32.27,130l1.89,1.14c1.24.5,1.19-.79,2.09-.44a2.89,2.89,0,0,1-1,1.59l-4.91-2.88ZM70,125.05c.2-.44,4.62-3,5-3.17a6.22,6.22,0,0,1,.69,1.39c-.89.24-.4,0-1.09-.2-.9-.35-2.53,1-2.83,1.34a18,18,0,0,0,1.49,2.23c2.23-1,1.29-1.19,1.64-2,.59,0,.24-.15.59.3l.7,1.39c-1.14.34-.85-.8-2.73.79L75,129.67c3.57-1.69,1.68-2.18,2.43-3.18.55.15.89,1,1,1.54a32.16,32.16,0,0,1-5,2.93c.34-.69.44-.74,0-1.54-.8-1.24-1.94-3.37-2.74-4.37Zm8.94.55c1-.45.84.5,2,.05a2.25,2.25,0,0,0,1.34-1.34,1.31,1.31,0,0,0-1-1.49,6.22,6.22,0,0,0-2.33.4c-1.79.34-3.23-.65-2.38-2.39a5.3,5.3,0,0,1,3.07-2.38c.25.6.55.6.65,1.19-.94.45-1-.55-2.14.1-.44.25-1.14.8-1,1.54.3,1.74,2.73.6,3.83.5a1.81,1.81,0,0,1,1.83,2.83,6.43,6.43,0,0,1-3.18,2.23c-.19-.64-.44-.59-.64-1.24Zm-55.33-1.34c1.24-.05.75.45,2.78-2.33.4-.55.75-1,1.15-1.49,1.09-1.35.44-1,.39-1.69a18.77,18.77,0,0,1,3.43,2.73c2.33,2.43-.64,7-4.27,5.41a18.08,18.08,0,0,1-3.48-2.63Zm-4.37-7.65c0-.84-.15-2.28.25-2.88,1.49-2.38,1.34-4.22,1.59-7.5.4.75.89,2.83,1.34,4a7.63,7.63,0,0,0,2.09,3.18c-3.43,1.1-4.17,2.49-5.27,3.23Zm61.69-3.52c.94-.5,1.58-1.84,2.13-3.13s.8-2.64,1.29-3.93c.3,1.84.2,3.68.65,5.47.84,3.27,1.24.29,1.19,4.91-.4-.34-.74-.69-1.19-1.09a10.38,10.38,0,0,0-1.24-.84c-1.15-.7-2.34-1-2.83-1.39Zm-61.69-5c0,3-1.09,8.19-3.87,8.39-1.74.1-3.18-1.44-3.73-2.48A8.66,8.66,0,0,1,11,109a28,28,0,0,1,3-9.09,26,26,0,0,1,2.43-3.67,19.59,19.59,0,0,1,2.93-3.08l.55,9.93s0,.1-.05.1l-.1.2c-.45-.89-1.74-2.23-3.23-1.34-4,2.28-4,9.68-.55,9.73a9.83,9.83,0,0,1-.64-4.37c.3-1.34,1.14-2.68,2.78-2.38,1,.5,1.09,1.79,1.09,3.13Zm66.85-15.2A19.82,19.82,0,0,1,89,96.05l.85,1.09c2.88,4,6.8,13.86,3.32,17.68-1.44,1.59-3.52,2.39-5.16.25-1-1.24-1.64-4.22-1.79-6.11a7.59,7.59,0,0,1,.4-3.57,1.6,1.6,0,0,1,2.53,0c1.89,1.89.5,5,.3,6.21,3.57-.2,3.42-7.75-.75-9.84-1.59-.79-2.48.75-3.23,1.44l.6-10.23Zm-1.94-1.19c.5,8.1-1.14,16.64-5.86,23l-1.88,2.29c-4.23,5.06-13.31,10.23-23.59,9.78-8.6-.35-17.73-3.67-23.59-9.78-6.56-6.86-8.55-15.6-7.65-25.38l62.57,0ZM53.88,51.05c.89-.24,29.25-.09,30.34,0V89.84l-30.39,0V61.88l.05-10.83ZM21.45,51H51.74V89.79H21.45V51Zm-6.66,22.1c3.23.24,3.28-.5,4.32-3v15a9.11,9.11,0,0,0-2.28-1.24c-4.07-1.14-5.22,3.68-3.58,5.07.8-.94,1.24-3.18,3-2.83S18,88.4,17.42,89.94c-1.68,4.77-5.51,2.49-6.8.6-1.74-2.58-.69-6.86.3-9.59.55-1.54,1.09-2.68,1.74-4.12l2.13-3.77Zm71.57-3.13c1,2.38,1,3.32,4.27,2.93a35.12,35.12,0,0,1,2,3.87c1.68,3.58,4.42,10.13,2,13.71a5.1,5.1,0,0,1-3.82,2.18c-3-.05-4.67-6.25-1.64-6.7,1.69-.25,2.13,2,2.88,2.83,1.39-1.29.55-4-.75-4.77-2.18-1.39-4.17.45-5.11,1l.1-15Zm6.06-15.5c-.35.45-.5,1-.85,1.39-1.69,2-3.22.4-3.62-.79-.85-2.39.44-5.22,2.23-5.91a5.12,5.12,0,0,1,6,2.43c1,1.79,1.44,4.87,1.29,7.35C97.09,64,96,69.48,90.63,69.33a2.69,2.69,0,0,1-2.73-1.59c-1.14-2.33.35-5.76,2.18-5.86,1.29-.05,2,1,2.59,1.69.1-2-.7-3.53-2.79-3.18a5.47,5.47,0,0,0-3.67,2.48l0-5.71c1.19.65,2.68,1.79,4.62,1.44,1.69-.24,1.94-2.33,1.64-4.17ZM12.76,63.77c.64-.6,1.24-1.74,2.58-1.69,2.73.15,4.27,7.3-.55,7.4-5.46.15-6.5-5.36-6.8-10.43A14.69,14.69,0,0,1,9.28,51.7a5.38,5.38,0,0,1,2.19-2.14c4.46-2,7.25,2.09,6,5.62-.29.84-1.24,2-2.48,1.74-1-.25-1.44-1.59-2-2.34-.34,1.89.05,3.83,1.64,4.17,1.84.4,3.53-.79,4.62-1.44l-.05,5.76c-.79-.94-1.44-2.13-3.57-2.48s-2.93,1.14-2.88,3.18ZM7.69,49.32v-.15l.15.1-.15,0ZM97,48.77h-.15l.1-.15.05.15Zm-20.17,1c.2-.44.45-.34.8-.74l3.67-6.36h1c.19,1.24.49,2.58.74,3.83.89,4.47.8,2.23,1.14,3.22H81.79c-.05,0-.1,0-.1-.05s0,0-.1,0l.75-.39a5.55,5.55,0,0,0-.1-1.84H79.46c-.25.6-.65.94-.65,1.74.1.3.45.15.6.59l-2.54,0Zm-49.76,0c.25-.49-.05,0,.45-.44l.94-1.15c.35-.59.7-1.24,1-1.83s.7-1.2,1.05-1.89.74-1.19,1-1.79c1.19,0,.89,0,1,.4l.25,1.39c.1.6.25,1.24.4,1.84.94,4.57.69,2.18,1.19,3.47H31.78c.25-.44.35-.2.84-.59l-.2-1.74H29.64A4,4,0,0,0,29,49.22c.34.3.39.1.59.54ZM10.47,46.19a14.69,14.69,0,0,1,1.39-2.54c.7-1.09,1.05-1.73,2.14-1.73v4.22l-3.53,0Zm81-.25c0-.5-.24-4,.25-4.17,1-.3,3.13,3.77,3.33,4.27l-3.58-.1ZM72.11,42.71h6.25c0,.35,0,1.74-.49,1.74-.8,0,.29-1.69-2.14-1.29a31.73,31.73,0,0,0-.74,6c.09.2.34,0,.54.54l-2.63-.05c.35-.64.69.1.94-1.19l.75-5.36c-2.63-.2-1.34,1.24-2.78,1.34l.3-1.74ZM26.36,49.56c-6.9,1.84-5.41-5-2.93-6.4a4.82,4.82,0,0,1,3.88-.2c-.1,1.79-.1,1.14-.45,1.29-.5-.25-.25-.3-.5-.69-.59-.85-3.12-1.05-3.72,2.68-.2,1.24-.05,2.78,1,3.08,1.89.49,1.74-1.2,2.93-1.25l-.25,1.49Zm39.49.2c.3-.59.44-.1.79-.64a4.15,4.15,0,0,0,0-3.08c-.3-.6-.49-1.19-.84-1.84-.75-1.49-.85-1-.9-1.49h2.39c-.1.3-.35.3-.6.5,0,1,.8,2,1,2.93A6.45,6.45,0,0,0,69,44.8c1.49-1.84.64-1.44.54-2.09l2.09,0c-.1.3-.45.3-1.24,1.24-1.79,2.14-2.69,2.68-2.54,5.22.5.39.45.1.6.54Zm-6.76-6.55-.39-.35c.19-.15-.25-.1.24-.1H64c0,.25-.05.65-.05.89-.1.75-.05.45-.4.6-.3-.15-.2,0-.34-.4s-.1-.74-1.3-.74c-1.54,0-1.73-.55-1.93,2.73,3.62,0,1-.65,2.73-.74L62.42,47c-1.24.1.45-1-2.48-.69l-.4,2.93c4.72.3,2.14-1.49,3.92-1.29l-.34,1.78-5.42-.05c.6-1,.5,1.05,1.1-2.88a22.62,22.62,0,0,0,.29-3.57Zm-7.4,0c-.54-.5-.39,0-.44-.55,1,0,2.13-.05,3.12,0,3.23.15,2.29,2.73.85,3.43-.65.35-.25,0-.75.45.75.24.8.69,1.25,1.53,1,2,.89.85,1.19,1.59H55.27c-1.34-2.63-.94-3.17-2.88-3l-.25,2.49c.25.25.15,0,.3.2s.1,0,.25.34H50.25c.15-.29,0-.1.3-.29s.1,0,.35-.25a56.42,56.42,0,0,0,.79-5.91Zm-6.95,0c-.55-.4-.45-.1-.5-.5h5.32a2.56,2.56,0,0,1-.25,1.49c-.94-.1-.35-.89-1.29-1.09a10.2,10.2,0,0,0-2.14,0l-.39,2.73,1.73-.05c.5-.5.15-.6.85-.69,0,.09.1,0,.1.29a3.73,3.73,0,0,1-.4,1.64c-.65-.1-.25-.2-.75-.74H45.39l-.4,3a8,8,0,0,0,2.48-.15c1-.55.15-1.19,1.44-1.24l-.35,1.78H43.15c.25-.49.35-.24.6-.54a1.66,1.66,0,0,0,.25-.75,30.62,30.62,0,0,0,.74-5.21Zm-8,.1c-.54-.55-.39,0-.44-.55,3.22,0,6.85-.4,5.86,3.87-.75,3.28-3.43,3.13-7,3.13.25-.44.35-.24.65-.54s.94-5.52.89-5.91ZM18.87,46.63c.09-.69,0-.59-.5-.89a3.68,3.68,0,0,1-.55-6.55c2.09-1,8.35.94,9.09,2.43H19.26L19.16,50c-.79-.05-1-.54-1.34-1.24a7.62,7.62,0,0,1-.64-2.13l1.69,0Zm59.64-5.16c.7-1.54,6.91-3.38,9-2.48,1.74.74,2.78,4.32.45,6-1.49,1.09-1.44.44-1.44,1.49l1.79-.05c-.25,1.24-.85,3.42-2,3.32l-.1-8.29Zm-42.76,0c.5-1.94,2.09-2.14,3.78-1.94,1,.1,2.28-1.69,4.07-.25A5.4,5.4,0,0,1,45,41.62l-9.24-.15Zm24.68,0c.5-1.84,2-3.77,4.32-2.48.65.34.55.44,1.44.34,1.64-.14,3,.2,3.48,2l-9.24.15ZM47.17,38.34a25.14,25.14,0,0,1,2.54,1.34l2.43,1.44a21.79,21.79,0,0,0-4.47.15,4.85,4.85,0,0,0-.5-2.93Zm11.53-.25c-.1.45-.35.95-.5,1.44a4.73,4.73,0,0,0-.35,1.74,20.5,20.5,0,0,0-4.72-.15l2-1.19a30.09,30.09,0,0,1,3.53-1.84Zm-11.53.25H47l.1-.15.05.15Zm11.53-.25v-.15l.14.1-.14.05Zm-39.54-.64A5.66,5.66,0,0,1,20.8,36.3a25.2,25.2,0,0,1,5.42-2.23c3.17-.94,11.22-3,9.43,3.08-1.24,4.22-5.91,3.67-6.26,2.63a2.92,2.92,0,0,1,.25-2c.45-.64.9-.49,1.54-.84-3.52-1.94-2.93,1.09-4,2-.75.05-2.73-.8-3.68-1a19.14,19.14,0,0,0-4.37-.49Zm55.13-.65c.75.15,1.39.35,1.64,1a3.16,3.16,0,0,1,0,2c-.5.84-3.28.4-4.12,0a4.31,4.31,0,0,1-2.14-3c-2.18-8,14.21-1.74,16.54.45-1.49.25-2.83.15-4.37.5-.94.19-3,1.09-3.68,1-.79-.8-.49-1.89-1.34-2.39a2.68,2.68,0,0,0-2.58.5Zm11.08-2.48h-.15l.1-.15.05.15ZM39,33.77a3.92,3.92,0,0,1,1.29.65L44,36.55c-.7,0-1.44,0-2.09,0s-1.24.25-1.94.3a13.27,13.27,0,0,0-.39-1.54C39.38,34.76,39.08,34.32,39,33.77Zm0,0h-.15l.1-.15,0,.15ZM66.2,36.85A10.33,10.33,0,0,0,62.42,36l1-.65a33.75,33.75,0,0,1,3.43-1.84,9.93,9.93,0,0,0-.69,3.33Zm16.09-4.17-4.62-1.74c-2.78-.94-6.06-1.89-8.74-.2A4.56,4.56,0,0,0,67,33.28a1.63,1.63,0,0,1-.75-.55,5.73,5.73,0,0,0-.69-.55c-1.84-1.69-.94-1.34-4.22.3l-5.71,2.93c-1,.5-2,.94-3,1.49L41,30.94c-.4,0-1.35,1.64-2.39,2.38-.35-.24-2-3.17-5.26-3.17A17.06,17.06,0,0,0,25.17,32l-2,.95c.19-.75.39-.45.39-1.54,0-2.09-1.69-2.09-3.77-2.09.3.75,1.79.7,1.79,2.09,0,1.69-2.64,2.08-3.58.79a3.06,3.06,0,0,1,1.09-4.52c2.24-1.34,7.75-.94,10.18-.25A30.27,30.27,0,0,0,34,28.46a43.43,43.43,0,0,0,10.38,0,60.5,60.5,0,0,0,8-1.74c.79-.25.59-.1,1.44.15l4.57,1.24a42.38,42.38,0,0,0,9.63,1A45,45,0,0,0,74.19,28c3.38-.64,13.66-2.58,13.66,2.68a2.23,2.23,0,0,1-2.14,1.94,3.07,3.07,0,0,1-1.54-.35,1.56,1.56,0,0,1-.64-2,7.38,7.38,0,0,1,1.93-.55v-.3c-1.09,0-2.53-.89-3.57.15s0,2.38.4,3.13ZM45.34,22.55h.15l-.1.15,0-.15Zm15.84-.45v.15l-.15-.1.15,0Zm.55-3.18v.15l-.15-.1.15,0Zm.14-.15-.14.15.14-.15Zm-15-7.35H47l-.09.15Z"/><path class="cls-1" d="M38.93,116c.64,0,.45,0,.69.54l1.2,0c.15-.69-.1-.54.49-.54l.15,1.78a3,3,0,0,1-2.28.65L38.93,116Zm.15-3.43s.05-.15.05-.1l.15-.35c.54.15.89.5,1.19.55.84.15.79-.85.94,0a8,8,0,0,1-.1,1.54c-.05.74,0,1.14-.54,1.29-1,.35-1.44-.45-1.69-.65,0-.05-1.34-.59-1-1.49.29-.69.39-.74,1-.79Zm15.34,4.27c.9.89.65.65.55,3.43-1-.55-.6-.55-1.09-1.44-.3-.55-.3-.3-.75-.5s-.34-.35-.64-.45c-.1,1.94.25,4.52-.8,4.92a4.79,4.79,0,0,1-1.69,0c-.09-1,.45-.65.65-1.39v-3.58l-1.49-.34a55.62,55.62,0,0,1,.05-7.06,2.52,2.52,0,0,1,1.09.3c.35.15.9.45,1.05.5s2.58,0,3.12,0l0,5.56ZM40.62,111c-.95.15-.15.2-.8.79.45.3.55.5,1,.2.15-.3,0-.64-.25-1Zm14,5.36c.7-.34,4.92-5.11,5.32-5.61a4,4,0,0,0-1.24-.59,2.16,2.16,0,0,1-.6.74,6.72,6.72,0,0,0-.55.7c-.44.49-.74.89-1.14,1.34-1.64,2.13-1.69,1.49-1.79,3.42Zm-13.7-7c.79,2.29,1.78,2,2.48,2.53a2.15,2.15,0,0,0,2.58.6c.5-.15.6-.55,1-.84.54-.45.74-.15.94-.85,0-.2,0-.55.25-.69.3-.3,0,0,.25-.1s0,0,.29-.2l-.29-.8c-1.44,1.29-.25.7-1.44,1.74a2.8,2.8,0,0,1-2.19.9c-1.84-.15-1.94-2.19-3.82-2.29Zm10.72-7.75-1,0A10.34,10.34,0,0,1,48,106.73c.2,1.44.54.2,1.09,3.33l2,.74c-.2-.69,0-.15-.35-.55s-.2-.19-.2-.74c.45-.4.55-.1.55-.89l1,.09,0,2.29,3.43.1c.59-1.54.39-.6.39-3,0-1.09,0-2.19,0-3.28.35.1.65.65,1,1,.69.8.54,3.58,2.28,4.13.25-.25.2-.1.3-.7l1-.1a14.26,14.26,0,0,0-3.32-5.61,5.26,5.26,0,0,1-.75-1c-.3-.45-2.53-1.49-3-.75l-.15.3-.89,2-.85-2.44ZM59,105a16.53,16.53,0,0,1,1.54-1.64c.95-.84.3-1,2.09-1-.2.44,0,.25-.35.54l-2.78,3L59,105Zm-1-1.89c-.1-.3-.25-.44-.35-.74h1.34c-.14.3,0,.1-.19.3l-.8.44ZM37,97.74c1.89-1.09,2.19.05,3.28-.65s1.29.15,2.83-.89c.4-.3,1-.1,1.64-.3s.75-.5,1.29-.35.65.45,1.29.65c.45.15.9.4,1.24.55a2.56,2.56,0,0,0,2.84-.7c1.44-1.89.44,0,1.88-1.89s1,.8,2.83.65c1.2-.1.1-.65,2.14-.7a6.05,6.05,0,0,0,2.68,1.29,7.81,7.81,0,0,0,3.53.5c1.09,0,2,.85,3,1l1.73.4a6.82,6.82,0,0,0,1.69.2c1.2.05,1.89.85,3.08,1a3.28,3.28,0,0,1,1.59.5c.75.35.35,0,1.39.6a10.24,10.24,0,0,0,1.64.44,14.46,14.46,0,0,1,1.34.6c.8.3,2.49.65,2.88,1.14-4.86.25-10.23,0-15.14,0-2.29,0-9.19.15-11.13,0-1.24,0-1.34-.74-3-.64-.79,1.19-1.69.69-1.89,0l-1.34.19-.2.5c-2.93.35-3-.89-4.86-.59-.35.64,0,.49-.65,1.19a2,2,0,0,1-.84,2c-.5-1-.1-1.68-.7-2.53l-20.71,0-.2-1.79c.5,0,1.69-.15,2.14-.25s.55-.69,1.54-.64c.59,0,.25.2,1,.15.5-.05.35-.15.95-.1a3.28,3.28,0,0,0,1.83-.25,2.69,2.69,0,0,1,1.84-.45c4.82-.1.65-.64,5.61-.89Zm-14.45,4.72h2.19c-.65.2-1.49.69-2.24.89l.25,1.24c2.43-.3,4.72-2.43,7.4-2.13L22.94,105l.35,1.44a20.85,20.85,0,0,0,2.93-1c1.78-.7,7.4-3,9-3l-11.72,4.37.5,1.54c1.09-.3,2.83-1,3.92-1.49l7.9-3.08c1.09-.4,3.08-1.44,4.22-1.29l-15.84,6.3.69,1.59,16.49-6.65c0,1-.54.89-1.59,1.34-2.48,1-13.9,5.61-14.45,6.21a15.92,15.92,0,0,0,.9,1.49L40.72,106c.05,1.34-1.34,1.39-3.13,2.29-2.73,1.34-8.64,3.87-10.83,5.16a6.86,6.86,0,0,0,1.54,2l12.27-6.41,0,.6-1,0,0,.79-7.89,4.27c-.7.4-2.19,1-2.63,1.59,1,.55,1.54,1.64,2.48,2.24a46.06,46.06,0,0,0,4.72-3.33c.94-.69.69-.69,2-.55a2.24,2.24,0,0,1-1.19,1.44c-1.44,1-3,1.84-4.37,2.84l-.35.34c.6.55,3.33,2.54,4.18,2.64.74-.8,1.73-1.49,2.58-2.24a7.39,7.39,0,0,1,1.74-1.39,1.62,1.62,0,0,1,.39.75,27.11,27.11,0,0,0-3.87,3.42,26.43,26.43,0,0,0,7,2.63c.25-.24.4-.39.7-.64l2.23-2.24A8.18,8.18,0,0,1,49.11,121c.84-.49.65-.54.84-1.19s.1-.3.5-.45c0,1.29-.1,1.44-1.14,2.34l-3.43,3.82c1.14.2,8.2,1.59,9,.55a6.87,6.87,0,0,0,.65-1c.25-.39.49-.69.74-1,.7-1,5.56-7.85,5.71-8.34v-4.27c-1.93,0-1-.25-.84-1s-.45-1.34-.55-2.08c0,0,5.27-5.86,5.56-6l1,0a16.85,16.85,0,0,1-2.43,2.93c-.2.25-.4.35-.6.64l-1.84,2.19c1.39-.1.55-.35,1.44-.6a8.65,8.65,0,0,1,1.19-.24l-.1.94.8.64-1,.45a1.29,1.29,0,0,0,.74,1.09,40.22,40.22,0,0,0,2.73-4,33.22,33.22,0,0,1,2.73-4.07h.9c-.55,1.44-5.42,9.14-5.37,9.68.3.55.15.55.95.55l.54,2.83-1-.25c-.15-.59-.1-.89-.74-1l0,1.84a9.86,9.86,0,0,1,.94,1L67,118.85c-1.34.2-1.64-1.1-2.09-2.09l-.69-.15-.2,3.18H62.47l-.2-1.89c-.84.6-3.38,4.82-4.22,6.11a17.72,17.72,0,0,0-1.39,2.19,29.25,29.25,0,0,0,8.49-2c2.34-.89,2.63-.84,3.08-2.23,1.34-4,2.88-7.9,4.22-11.92.45-1.3.9-2.59,1.39-3.93a37.88,37.88,0,0,1,1.44-3.92h.6l-5.66,19.37a20.8,20.8,0,0,0,4-3L76,116.71c.3-.35.55-.6.84-1l2.24-3.18c.64-1,.2-8.89.2-10.38H80.4l.15,7.45c2.53-5.27,3.33-10.88,3.08-17.58a1.49,1.49,0,0,0-.7.74C81.54,95,80,97.09,78.76,99.33a11.07,11.07,0,0,1-3.82-1.39l3.37-6c-1.44,0-8.09-.2-8.89,0L69,96.45a8.67,8.67,0,0,1-2.78-.7,4.62,4.62,0,0,0-3-.54L64,91.93l-8.44-.05.1,2.18c-1.54-.39-1.2-2.63-3.33.1a2.18,2.18,0,0,1-.75.5c-.64.5-.49.94-1.39,1.29L50,92l-8.89,0c.45,1.14,1.54,2.38,1.94,3.38-1,.64-.49.69-2.18.84-1.29.1-.65.55-2.78.4L35.7,91.93l-8.64-.05,3.87,6a9.74,9.74,0,0,0-1.34.2c-1.54.59-1,.94-2.88-1.15-.54-.59-1.09-1.09-1.64-1.73s-2.68-3.08-3.32-3.28a35.58,35.58,0,0,0,0,8l.24,1.89C22.34,102.76,22.24,102.31,22.54,102.46Z"/><path class="cls-1" d="M77.32,64.46h-.45V65L79,66.75c1.19,1.09.55.84,2.48,1.44a21.59,21.59,0,0,1,.75,3.28c-.75.54-1.74,1-2.54,1.54-1,.64-4.12,1.88-5.51,2.53-1.24.55-2.33.25-1.89,2.13a54.43,54.43,0,0,1,6.21,2.64L83.83,84V51.4H71.46c-1.19,0-1.14-.1-2,.5-4.37,2.83-9.38,5.71-13.8,8.54-1.84,1.19-1.39.05-1.39,6.21a27.41,27.41,0,0,0,2.78-1.09c3.08-1.34,2.33-1.69,4.22-.2a10,10,0,0,1,1.54,1.29l.1,8.79a13.22,13.22,0,0,0,2.23.55c1.19.29,1.29.1,2.34-.3,3.47-1.34,4.91-2,8.09-3.43,2.93-1.24,1.29-.74,4.47-1.34A4,4,0,0,0,80,69l-9.34-.15V67.54c2.49-.24,2.59.45,3.83-1.14.89-1.14,1.94-1.39.3-3-2.68.65-1.79,1.34-5.42,1.29.3-.64,3-3.13,3.33-3.82-.2-.3-.5-.6-.69-.9-.7-.89-1.05-.24-1.94-1.39-.3-.39-.45-.64-.75-1l.65-.64a3.52,3.52,0,0,0,1.74,1.53c.94.45,1.29.95,2,1.3.65-.5,1.2-1.39,1.79-1.94.35-.35,1.34-1.74,1.79-1.84h.1c.74,2.48-.3,2.83-.6,5a7.42,7.42,0,0,0,1.84.64c.2,1.74-.15,1.79-.74,3Z"/><path class="cls-1" d="M30.44,89.25c-1.89-.1-5.42-1-5.86-2.34C24,85.12,28.1,84.13,29.69,84c.35,2.19-.3,1-.3,2.73,0,1.2.65,1.74,1.05,2.54ZM26.86,82a4.79,4.79,0,0,1-.05,2.23l2.78-.55-.1-.79L26.86,82Zm10.33,1.88a10.14,10.14,0,0,1-2.28-.49c.15-.75.64-.7,1.34-1A13.75,13.75,0,0,1,38,81.85a4,4,0,0,0-.8,2ZM39,79.12a3.15,3.15,0,0,1,2.68.49v.55a3,3,0,0,1-2.38.49c.05-1-.2-.84-.3-1.53Zm-16.54-.45c.3-.75.75-.7,1.54-.5s2.14-.15,2,.6-3.13,1.19-3.53-.1Zm4-.25s0-.15,0-.2c-.1-.4.5,0-.05,0-.29,0-.2.25.05.25Zm16.74-2c.89-.64,3.18-1,3.58.3-.65,1.09-2.74.9-3.58.2v-.5Zm-.35,0c.5-.64.65-.54,1.39-.94a9.8,9.8,0,0,1-2.43-.3c-.35.7-.4.35-.89.85a4.74,4.74,0,0,1,1.58,3.27l.2-.19.1-.1,1-1.39c-.65-.3-1-.2-1-1.2ZM38,75c.1-.79.84-.94,1.68-.94a1.84,1.84,0,0,1,1.89.79c-.5,1.25-2.93,1-3.57.15ZM27.66,74.6a3.3,3.3,0,0,1,.64.19.84.84,0,0,1,.3.15c.15.1.15.15.25.2-.4.65-.85,1-1.24,1.64a4.83,4.83,0,0,0,.05-2.18ZM35.3,75l1.15-.79c-.75-.4-1.79-.85-2.54-1.34s-.59-1.79-2.13-1.69c-.3.4-.5.5-.8.94-.89,1.49-1.64,1-3.13,2.29l1.3.69-3.43,4.42C24,81.9,28.15,81.8,29.44,82.69a2.4,2.4,0,0,1,.35,1.19A1.72,1.72,0,0,0,30.24,85l.49-1.89,2.89.1c.09.49.24,1.54.69,1.83.65-1.39-.5-2,1.19-2.58.75-.25,3.08-.94,3.38-1.44a1.41,1.41,0,0,0-.05-1.59,12.93,12.93,0,0,0-.94-1.14L36.1,76.23c-.1-.29-.65-.94-.8-1.24Zm-12-3.82c1.34-1.69,5.06,0,3,.74a3,3,0,0,1-1.14.2c-.89,0-1.74-.15-1.83-.94Zm11.77-.45a2.58,2.58,0,0,0,.89.55c-.2.45,0,0-.2.4,0,0-.1.09-.15.14-.25.25-.05,0-.25.2l-.29-1.29Zm3.87-.25a2.83,2.83,0,0,1-3.58,0c.1-.84.9-1,1.79-1s1.69.25,1.79,1Zm2.78-2.08c.6-1,3.23-1,3.58.15-.25.59-.95.79-1.79.79s-1.59-.2-1.79-.94Zm-10.88-.55c.6-1.14,3.43-.74,3.58,0-.15.8-.84.94-1.69.94s-1.79-.14-1.89-.94ZM25,67.69c.35-.94,1.94-.94,2.78-.69,1,.3,1.05.94.1,1.29a3.45,3.45,0,0,1-2.13,0c-.65-.2-.5-.2-.75-.65Zm10,3a7.66,7.66,0,0,0-1.25-1.64c.1-.1,0,0,.2-.2,1.69-1.24.2-2.13-1.44-2.13-1.19,0-2.08.35-2.08,1.54a3.7,3.7,0,0,0,.89.69c-.65,1-1.69,1.79-1.59,3.28.05.8.35.65-.5,1,.35-2.33-.14-3.17-1.39-4.42l.55-.39c.84-.65.3-1.44-.65-1.74a3,3,0,0,0-3.22.69V68c.29.3.64.45.94.79a11.5,11.5,0,0,0-.79,1c-.55.59-.45.25-1.2.59-1.09.5-.94,1.54.25,1.84-.45.95-1,1.09-1.44,2.34-.45,1.49.25,2.18.65,3.17-.45.15-1,.4-.9,1s.5.64.95.94c-1.2,1.79-1.2.7-1.2,3.68,0,1.93.65,2.18,2.49,2.33C24,87,24,87.26,24.87,88a7.86,7.86,0,0,0,2.34,1.15,24.5,24.5,0,0,0,6.55.2,3,3,0,0,0,1.1-2.44,4,4,0,0,0-.3-1.49c-.1-.35.15-.89.2-1.44,1.79.1,6.16,1,6,2.78s-4.27,2.49-6.21,2.59c2.18.19,5.51-.35,6.36-2,.59-1.14.54-.25,1.09-1,1.49-1.84.35-3.68-.3-4.72.2-.65.25-.5.5-.7.15,1,.54,2.24,1.34,2.54s2.73.44,3.38-.1a3.67,3.67,0,0,0,.79-3.08c-.3-1.39-1-1.69-1.49-2.54,1.14-.39,2.14-2-1.59-2.23.9-.45.75,0,1.24-1,1.29-2.74-.69-4-1.19-4.92,3.18-1.19-1.54-3.58-3.28-1.24,0,.84.3.94,1,1.19-.25.6-.85,1-1.2,1.74A3.59,3.59,0,0,0,40.92,74l-1.05-.15c-.3-.45-.39-.84-.64-1.29s-.65-.7-.95-1.14c1.54-.6,1.29-1.74-.29-2.14C36.69,68.83,34.81,69.23,35.06,70.72Z"/><path class="cls-1" d="M27.26,57.06l0-1.24,1.34,0,.05,1.24,2.38,0,.05-1.24.85,0V57h1.83V55.77h1.25c0,1.69,0,1,.49,1.39v.4c-.44.25-.64-.1-.49.55s.34,0,.59.59c-.45.3-.5.1-.54.4v6.41h1.24c.1-1.49.2-7.65,2.78-7.65,1.29,0,2,1.94,2.33,3a20.24,20.24,0,0,1,.6,4.67h2.53c.2-3,3-3,3.33-.05l3.48.05A27.87,27.87,0,0,0,51.3,61c-2.24-.05-1.79.15-3.38-.8l-7.7-4.81c-1.69-1-3.48-2.14-5.11-3.23a3.93,3.93,0,0,0-3.23-.95c-.75.1-.45,2.39-.45,3.68l-1.09,0V51.2H27.46c-.8.3-.55,3-.55,4.18H26V51.75H25c-.29,1.34.1,1.19-2.08,1.39v1.09l-.7-.1c-.15,2.09-.3-.24-.3,2.64l.1,8.59c.3-1.34-.19-8.4,1.69-10.23,1.89.54,1.89,8.94,1.89,10.33l1.74.05V58.85H25.47c.05-.64-.35-.44,1.79-.44l0-.7H25.62l-.05-.5.74-.15A3,3,0,0,0,27.26,57.06Z"/><path class="cls-1" d="M67.73,85.07c-.09-.09-.34.25,0-.64a1.46,1.46,0,0,0,.1-.45l.2-.49A25.41,25.41,0,0,1,69.62,86c.8,1.14.35.69.25.84-.3,0-1.19-1.69-1.54-2.18l-.2-.2a1.09,1.09,0,0,1-.15.25l-.25.39Zm6.56-1.19c-1.59.4-1.59,1.54-1.64-1.49,0-.79-.1-.74.15-1.14.5.25,1.14,1.54,1.44,2,.45-.1.4,0,.5,0,.05.2-.1.29-.2.44.25.45.59.9.1.75-.15,0-.3-.5-.35-.65Zm-3.92.4c-.35-.45-.55-1.09-.2-1.39.64-.5.54.4,1.24,0-.65-.65-1-.65-1.74-.1-.3,1.34,1.19,3.73,2.48,3.08,1.1-.5.1-2.33-1-2.29-.5.1-.59.4-.79.7Zm6.9-.89c.4-2-2.43-4.18-2.88-2.64-.3.85,1.39,4.08,2.88,2.64Zm-12.61,0a9.1,9.1,0,0,0,1.24,1.39c1,1.09,2.48,2.83,3.72,4,.85-.4,1.34-1.14,2.88-1.59s2.34,0,3.63.3c1.44-2.24,2.33-2.68,5.66-2.48-.25-.4-.3-.3-.65-.6l-1.73-1.59c-.85-.65-1.54-1.39-2.39-2-1.09-.84-1-1.54-3.13-1.34A3.77,3.77,0,0,0,71,81.1c-1.59-.1-2.38-.4-3.87.3A5.35,5.35,0,0,0,64.66,83.39Z"/><path class="cls-1" d="M54.37,70.47l.05,7.6,8-3.18V66.65c-1,0-5.61,2.43-7.1,3.13C54.77,70,54.57,70,54.37,70.47Z"/><path class="cls-1" d="M67.39,78.92c-.3-.4-4-2.78-4.57-3.18l-8.54,3.62v5.57Z"/><path class="cls-1" d="M45.49,29.05c-.55.4-1.54.7-1.94,1.25.89.19,8.64,4.46,9.19,4.46s4.57-2,5.61-2.43l3.42-1.59A3.38,3.38,0,0,0,61,29.8c-1.14-1.29.2-1.19-4.42.64l-2.73,1.2c-1.29.54-.9.64-2.78-.25Z"/><path class="cls-1" d="M52.64,130.07c-1.49.6-1.64,2.29-1.49,3.82.39,3.68,4.76,3.58,4.32-1.49C55.32,130.91,54.37,129.38,52.64,130.07Z"/><path class="cls-1" d="M25.37,125.2c.8.5,2.83,2.73,5-.2,1.69-2.33.64-3.52-1.1-4.76A43.16,43.16,0,0,0,25.37,125.2Z"/><path class="cls-1" d="M37.09,49.32c2.44,0,3.53-.6,4-2.73.55-2.64-.49-3.53-3-3.43Z"/><path class="cls-1" d="M50.75,143.13v2.24l2.78,1.09v-1.79l-.84-.79,2.68,0c-1.14,1.19-1,.69-1,2.23,0,.5.15.4.4.25l1.24-.74c.3-.15.5-.25.75-.35,0-1.44.15-1.79.15-2.39a13.7,13.7,0,0,0-3.08-.74l-2.39.55C51,142.73,50.75,142.69,50.75,143.13Z"/><polygon class="cls-1" points="28.6 65.61 31.08 65.61 31.08 58.95 28.65 58.95 28.6 65.61"/><path class="cls-1" d="M48.66,29.2a20.45,20.45,0,0,0,2.09.7c.5.15,1.59.69,2,.59l4.37-1.29s0-.1,0-.05l-4.23-1.79A16.16,16.16,0,0,0,48.66,29.2Z"/><path class="cls-1" d="M27.11,79.91c.64.45,1.54,1.64,2.23,1.94l5.86.05c.6-.8,1.4-1.25,1.89-2.19a8.33,8.33,0,0,0-.94-.94,5.32,5.32,0,0,0-1.09-1l-.75.65,1.24.74c0,1.35.15.9-.64,1.79H29.2c-.55-.79-.6-.3-.5-1.74l1.24-.74-.7-.75A18.32,18.32,0,0,0,27.11,79.91Z"/><path class="cls-1" d="M37,62.53v3.08h2c-.05-1.15,0-2.34,0-3.48,0-2.14,0-1.74.79-2.78C38.93,58.45,37,59.8,37,62.53Z"/><polygon class="cls-1" points="31.93 65.61 33.81 65.61 33.81 58.95 31.98 58.95 31.93 65.61"/><path class="cls-1" d="M22.44,60.44v5.17l1.34,0c-.05-1.49,0-3,0-4.42,0-4,.3-2.59.5-4.22l-.45-.2C22.89,57.16,22.44,59.1,22.44,60.44Z"/><path class="cls-1" d="M49.31,99l-.05.84,6-.09-.2-1-.94-.1L53.13,97a2.68,2.68,0,0,0-1.78,1.1C50.45,99.13,50.55,98.53,49.31,99Z"/><path class="cls-1" d="M52.39,46.24c1.49,0,2.63-.1,2.88-1.39.4-1.74-1-1.79-2.39-1.69Z"/><path class="cls-1" d="M76.23,89.4a3,3,0,0,0,2.83-.8,3.16,3.16,0,0,1,2.78-.79l-1-.9A4.5,4.5,0,0,0,76.23,89.4Z"/><path class="cls-1" d="M30.49,76.68l.74,0,.15.65h1.74l.15-.7c.69,0,.64.4.64-1.44l-3.42,0Z"/><path class="cls-1" d="M42,98.53v1.25l.64.24.85-.89c.79.4,1,.35,1.14,1.34l.8,0a2,2,0,0,0,0-1.49c0-.15-.75-1-.9-1.19l-1.69,0C42.6,98.53,42.7,98.09,42,98.53Z"/><path class="cls-1" d="M49.81,105.49v2.18H51c.49-.64.54-.54,1.59-.79A2.1,2.1,0,0,0,49.81,105.49Z"/><path class="cls-1" d="M63.46,114.53l.45.19c.55-.39.4-.79.75-1.44s.24-.89.19-1.88c-.79-.25-.29-.2-.74-.75h-.65Z"/><path class="cls-1" d="M79.7,47h2.44l-.6-3.18-.55.8c-.14.3-.29.5-.44.79A6.23,6.23,0,0,0,79.7,47Z"/><polygon class="cls-1" points="29.84 46.98 32.32 46.98 31.73 43.7 29.84 46.98"/><path class="cls-1" d="M76.77,83.39c.7-1-1-3-1.73-2.74S75.43,83.54,76.77,83.39Z"/><path class="cls-1" d="M68.28,89.4a23.11,23.11,0,0,0-3.38-3.63l-.29.25a2.33,2.33,0,0,0,.74,1.09C66.59,88.1,67,89.45,68.28,89.4Z"/><path class="cls-1" d="M44.94,64.36v1.25h1.24V64.22c.3-.35.35-.2.45-.5C45.73,63.52,45.39,64,44.94,64.36Z"/><path class="cls-1" d="M72.11,85.57c.39-.84-.2-1.64-1.25-1.44a.84.84,0,0,0,0,1.09A1.1,1.1,0,0,0,72.11,85.57Z"/><polygon class="cls-1" points="28.65 58.26 28.65 58.5 31.03 58.5 31.08 58.26 31.08 57.76 28.65 57.76 28.65 58.26"/><polygon class="cls-1" points="31.98 58.26 31.98 58.5 33.81 58.5 33.86 57.81 33.27 57.76 31.93 57.76 31.98 58.26"/><polygon class="cls-1" points="73 83.93 73.94 83.53 73.1 82.05 73 83.93"/><path class="cls-1" d="M73.94,89.2c-.84.2-.1,0-.44.25h2.08A1.9,1.9,0,0,0,73.94,89.2Z"/><polygon class="cls-1" points="81.34 130.22 81.64 130.12 81.34 129.92 81.34 130.22"/><line class="cls-2" x1="54.97" y1="80.41" x2="62.72" y2="76.88"/><line class="cls-2" x1="54.87" y1="81.95" x2="63.96" y2="77.87"/><line class="cls-2" x1="54.87" y1="83.54" x2="64.71" y2="78.82"/></g></g></svg>