<?xml version="1.0" encoding="utf-8"?>
<!-- Generator: Adobe Illustrator 25.2.3, SVG Export Plug-In . SVG Version: 6.00 Build 0)  -->
<svg version="1.1" id="Capa_1" xmlns="http://www.w3.org/2000/svg" xmlns:xlink="http://www.w3.org/1999/xlink" x="0px" y="0px"
	 viewBox="0 0 185 185" style="enable-background:new 0 0 185 185;" xml:space="preserve">
<style type="text/css">
	.st0{fill:#29B5E9;}
	.st1{fill:#BFBFBF;}
	.st2{fill:none;stroke:#29B5E9;stroke-width:8;stroke-miterlimit:10;}
</style>
<g id="wArrkC">
	<path class="st0" d="M112.4,88.4c4.8,0,9.6,0,14.4,0c3.4-0.2,6.5,1.7,7.9,4.8c0.6,1.3,0.8,2.8,0.8,4.2c0,3.1,0,6.2,0,9.4
		c0,0.8,0.2,1.2,1.1,1.2c1.5-0.1,3,0,4.5,0c3.2-0.1,5.9,2.4,6,5.6c0,0.1,0,0.3,0,0.4c0,6.5,0,12.9,0,19.4c0.1,3.2-2.3,5.9-5.5,6
		c-0.1,0-0.2,0-0.3,0c-6.5,0.1-13,0.1-19.5,0c-3.7-0.1-6.1-2.5-6.1-6.2c-0.1-6.2-0.1-12.4,0-18.6c0-3.5,2-6,4.9-6.4
		c1.5-0.1,3-0.2,4.5-0.1c2.6,0,2.3,0.4,2.3-2.3s0-5.2,0-7.9c0-0.9-0.3-1.2-1.2-1.2c-9.4,0-18.9,0-28.3,0c-1,0-1.3,0.3-1.3,1.3
		c0.1,3,0,6,0,9c0,0.8,0.3,1.1,1.1,1.1c1.3,0,2.7,0.1,4,0c3.7-0.3,6.5,2.4,6.5,6.5c0,6,0,12.1,0,18.1c0,4.5-2.5,6.8-7,6.9H83.7
		c-4.4,0-6.8-2.3-6.9-6.6c-0.1-6.2-0.1-12.3,0-18.5c0.1-4.1,2.5-6.3,6.6-6.3c1.3,0,2.7,0,4,0c0.8,0,1.1-0.3,1.1-1.1
		c0-3.1,0-6.2,0-9.4c0-0.8-0.4-1-1.1-1c-2.6,0-5.2,0-7.9,0c-6.8,0-13.6,0-20.4,0c-1.1,0-1.4,0.3-1.4,1.4c0.1,3,0,6,0,8.9
		c0,0.8,0.3,1.1,1.1,1.1c1.6,0,3.1,0,4.7,0c3,0,5.5,2.2,5.7,5.2c0.4,4.8,0.1,9.5,0.2,14.2c0.1,2.2,0.1,4.4-0.1,6.6
		c-0.2,3.1-2.9,5.5-6,5.3c-6.5,0.1-12.9,0.1-19.4,0c-3.2,0.1-5.9-2.5-5.9-5.7c0-0.1,0-0.3,0-0.4c0-6.4,0-12.8,0-19.2
		c-0.2-3.2,2.3-5.9,5.5-6.1c0.2,0,0.5,0,0.7,0c1.4,0,2.8,0,4.3,0c0.9,0,1.2-0.3,1.2-1.2c0-3.1,0-6.2,0-9.4c-0.1-2,0.5-4,1.6-5.7
		c1.6-2.2,4.3-3.5,7-3.3c9.4,0,18.8,0,28.2,0c2.3,0,2.1,0.1,2.1-2c0-2.7,0-5.3,0-8c0-1-0.2-1.5-1.4-1.4s-2.4,0-3.6,0
		c-4.2,0-6.7-2.2-6.7-6.4c-0.1-6.2-0.1-12.3,0-18.5c0.1-4.3,2.6-6.5,6.9-6.5h17.8c4.3,0,6.8,2.4,6.8,6.8c0,6,0,11.9,0,17.9
		c0,3.9-2.3,6.6-5.6,6.7c-1.6,0.1-3.1,0.1-4.7,0c-1.1,0-1.4,0.3-1.4,1.4c0.1,2.8,0,5.6,0,8.4c0,1.7,0,1.7,1.6,1.7L112.4,88.4
		L112.4,88.4z M92.4,134.8h7.2c2.5,0,3.8-1.2,3.8-3.7c0-4.9,0-9.9,0-14.8c0.2-1.7-1.1-3.3-2.8-3.4c-0.1,0-0.3,0-0.4,0
		c-5.1-0.1-10.3-0.1-15.4,0c-1.7-0.1-3.2,1.2-3.3,2.9c0,0.1,0,0.2,0,0.2c-0.1,5.2-0.1,10.4,0,15.5c0,2.2,1.3,3.3,3.5,3.3
		C87.5,134.8,90,134.8,92.4,134.8L92.4,134.8z M92.4,72.2L92.4,72.2h3.6h3.6c2.6,0,3.8-1.2,3.8-3.9v-14c0-3-1.5-4.4-4.5-4.1
		c-1.2,0.1-2.4,0.2-3.6,0.1c-3.4-0.3-6.8,0.2-10.2,0c-2.4-0.2-3.7,1.3-3.7,3.7c0,4.9,0,9.7,0,14.6c-0.2,1.8,1.1,3.4,2.8,3.6
		c0.3,0,0.5,0,0.8,0L92.4,72.2z M42.4,123.8L42.4,123.8c0,2.5,0,5,0,7.6c-0.2,1.7,1.1,3.2,2.8,3.4c0.2,0,0.4,0,0.6,0
		c4.9,0,9.8,0,14.8,0c2.5,0,3.7-1.2,3.7-3.7c0-4.9,0-9.8,0-14.7c0-2.3-1.2-3.6-3.5-3.6c-4.9,0-9.8,0-14.7,0c-2.4,0-3.6,1.2-3.6,3.6
		S42.5,121.3,42.4,123.8L42.4,123.8z M142.4,123.8L142.4,123.8c0-2.6,0-5.2,0-7.8c0.2-1.6-1-3.1-2.7-3.3c-0.1,0-0.3,0-0.4,0
		c-5.2-0.1-10.4,0-15.5,0c-1.7-0.1-3.1,1.2-3.1,2.8c0,0.1,0,0.1,0,0.2c0,5.2,0,10.5,0,15.7c-0.1,1.7,1.2,3.1,2.9,3.1
		c0.1,0,0.2,0,0.2,0c5.2,0,10.4,0,15.6,0c1.7,0,3-1.3,3.1-2.9c0-0.1,0-0.2,0-0.3C142.5,129,142.5,126.4,142.4,123.8L142.4,123.8z"/>
</g>
<g>
	<path class="st1" d="M92.5,2C142.4,2,183,42.6,183,92.5S142.4,183,92.5,183S2,142.4,2,92.5S42.6,2,92.5,2 M92.5,0
		C41.4,0,0,41.4,0,92.5S41.4,185,92.5,185S185,143.6,185,92.5S143.6,0,92.5,0L92.5,0z"/>
</g>
<circle class="st2" cx="92.5" cy="92.5" r="78"/>
</svg>
