<?xml version="1.0" encoding="utf-8"?>
<!-- Generator: Adobe Illustrator 25.2.3, SVG Export Plug-In . SVG Version: 6.00 Build 0)  -->
<svg version="1.1" id="Capa_1" xmlns="http://www.w3.org/2000/svg" xmlns:xlink="http://www.w3.org/1999/xlink" x="0px" y="0px"
	 viewBox="0 0 185 185" style="enable-background:new 0 0 185 185;" xml:space="preserve">
<style type="text/css">
	.st0{fill:#A652CE;}
	.st1{fill:#BFBFBF;}
	.st2{fill:none;stroke:#A652CE;stroke-width:8;stroke-miterlimit:10;}
</style>
<g id="ZlTHYz">
	<path class="st0" d="M47.3,92.6c0-12.9,0-25.9,0-38.8c0-5.1,1.6-9.4,6.3-12c1.6-0.9,3.4-1.3,5.2-1.3c21.4,0,42.8,0,64.3,0
		c6.1-0.1,11.1,4.9,11.2,11c0,0,0,0,0,0c0.1,2.2,0.1,4.5,0,6.8s0.6,3.2,3,3.1s4.7,0,7,0c2.1-0.1,3.3,0.9,3.4,3c0.1,3,0.1,6.1,0,9.1
		c-0.1,2.1-1.2,3.2-3.4,3.1c-2.4,0-4.9,0.1-7.3,0c-1.8-0.1-2.6,0.5-2.7,2.5c-0.1,4.7-0.2,4.7,4.6,4.7c6.2,0,6.3,0.1,6.3,6.2
		c0,1.9,0,3.8,0,5.7c0,2.2-1,3.4-3.3,3.3c-1.8,0-3.6,0-5.5,0c-1.4,0-2.1,0.6-2.1,2c0,0.8,0,1.6,0,2.3c-0.2,2.3,0.6,3.3,3.1,3.2
		c3.3-0.1,4,0.7,4.1,3.9c0.1,2.5,0.1,5,0,7.5c-0.1,2.8-1,3.9-3.8,3.7s-3.5,1-3.3,3.5s0.1,5.2,0,7.8c0.1,6.1-4.9,11.2-11,11.2
		c-0.1,0-0.2,0-0.3,0c-21.4,0-42.8,0-64.3,0c-5.5,0.1-10.3-3.9-11.2-9.4c-0.3-1.6-0.4-3.3-0.4-4.9C47.3,117.6,47.3,105.1,47.3,92.6z
		 M90.9,122.9c5.3,0,10.6,0.1,15.8,0c4.6,0.1,8.5-3.5,8.6-8.2c0,0,0-0.1,0-0.1c0.2-6.4,0.1-12.8,0-19.2c0-3.6-2.3-6.8-5.7-8
		c-1.9-0.6-3.5-0.6-5.1,1.2c-7.4,8.7-19.3,8.8-27.1,0.4c-2.1-2.3-3.9-2.6-6.6-1c-2.8,1.5-4.5,4.5-4.4,7.7c0,6.1,0,12.1,0,18.2
		c0,5.4,3.5,8.9,9,9C80.6,123,85.8,122.9,90.9,122.9z M76,77.2c0,8.3,6.8,15,15.1,15c0,0,0,0,0,0c8.2-0.1,14.8-6.7,15-14.9
		c0-8.3-6.7-15-15-15S76,68.9,76,77.2L76,77.2z"/>
</g>
<g>
	<path class="st1" d="M92.5,2C142.4,2,183,42.6,183,92.5S142.4,183,92.5,183S2,142.4,2,92.5S42.6,2,92.5,2 M92.5,0
		C41.4,0,0,41.4,0,92.5S41.4,185,92.5,185S185,143.6,185,92.5S143.6,0,92.5,0L92.5,0z"/>
</g>
<circle class="st2" cx="92.5" cy="92.5" r="78"/>
</svg>
