<?xml version="1.0" encoding="utf-8"?>
<!-- Generator: Adobe Illustrator 25.2.3, SVG Export Plug-In . SVG Version: 6.00 Build 0)  -->
<svg version="1.1" id="Capa_1" xmlns="http://www.w3.org/2000/svg" xmlns:xlink="http://www.w3.org/1999/xlink" x="0px" y="0px"
	 viewBox="0 0 185 185" style="enable-background:new 0 0 185 185;" xml:space="preserve">
<style type="text/css">
	.st0{fill:#33AA4E;}
	.st1{fill:#BFBFBF;}
	.st2{fill:none;stroke:#33AA4E;stroke-width:8;stroke-miterlimit:10;}
</style>
<g id="Capa_2_1_">
	<g id="Capa_1-2">
		<g id="i5GIGH">
			<path class="st0" d="M132.9,61.5c-0.5,2.8-1,6-1.5,9.2c-2.3,13.8-4.6,27.5-6.9,41.3c-0.4,2.4-1.6,2.9-3.7,1.6
				c-5.3-3.3-11.2-5.2-17.4-5.6c-5.6-0.4-11.1,0.1-16.6,0.6c-5.7,0.4-11.5-0.1-17-1.6c-2.6-0.6-5-1.5-7.4-2.6
				c-0.9-0.4-1.2-0.2-1.4,0.8c-1.6,9.8-3.2,19.5-4.9,29.3c-0.1,0.3-0.1,0.7-0.2,1c-0.3,1.5-1,2.1-2.2,1.9c-1.1-0.2-1.7-1.1-1.5-2.6
				c0.3-2,0.7-4.1,1-6.1c2.3-13.4,4.5-26.8,6.7-40.2c1.8-11,3.7-21.9,5.5-32.9c0.3-2,0.6-4,1-6s1.4-2.6,3.2-1.6
				c7.6,3.9,16.1,5.7,24.7,5.2c4.7-0.2,9.3-0.9,14-0.8c8.1,0.1,15.7,1.8,22.6,6.1C132.7,59.6,132.9,59.8,132.9,61.5z M86.3,89
				c2-0.2,4-0.4,6-0.5c0.7,0,1.2-0.5,1.3-1.1c0,0,0-0.1,0-0.1c0.7-4.5,1.5-9.1,2.3-13.6c0.1-0.8-0.1-1-0.8-0.9
				c-1.7,0.2-3.5,0.2-5.3,0.3c-2.3,0.1-4.7-0.1-7-0.4c-0.6-0.1-1.3-0.3-1.5,0.7c-0.7,4.6-1.5,9.2-2.3,13.8c-0.1,0.7,0.1,1.1,0.9,1.2
				C82,88.6,84.1,88.8,86.3,89z M126.3,78.2c0.1-0.3-0.2-0.6-0.6-0.8c-0.4-0.2-0.9-0.5-1.3-0.7c-3.1-1.6-6.5-2.8-9.9-3.5
				c-0.6-0.1-1.3-0.3-1.5,0.6c-0.8,4.6-1.5,9.2-2.3,13.8c-0.1,0.6,0,1.1,0.7,1.2c4.1,0.7,8,2.2,11.6,4.2c0.5,0.3,0.8,0.2,0.9-0.4
				c0.2-1.1,0.4-2.2,0.5-3.2C125,85.7,125.6,82.1,126.3,78.2z M107.1,56.3c-2-0.1-3.9,0.1-5.9,0.2c-0.8,0-1.2,0.3-1.3,1.1
				c-0.7,4.2-1.3,8.3-2.1,12.5c-0.1,0.8,0,1.2,0.9,1c0.7-0.1,1.4-0.2,2.1-0.1c3.4-0.1,6.7,0,10.1,0.3c0.7,0.1,1-0.1,1.1-0.8
				c0.7-4.2,1.4-8.3,2.1-12.5c0.2-0.9-0.1-1.4-1.1-1.5C111.1,56.3,109.1,56.2,107.1,56.3z M108.8,90.5c0.2-0.7-0.6-0.6-1.2-0.7
				c-3.3-0.3-6.5-0.4-9.8-0.2c-3,0.1-3,0.2-3.6,3.2c0,0.1-0.1,0.2-0.1,0.3c-0.6,3.3-1.1,6.5-1.7,9.8c-0.1,0.5-0.5,1.3,0.7,1.3
				c4.2-0.2,8.3-0.1,12.5,0.3c0.4,0.1,0.7-0.1,0.9-0.4c0-0.1,0-0.1,0-0.2L108.8,90.5z M67.5,66.1c-0.2,0.6,0.3,0.8,0.7,1
				c3.4,1.6,7.1,2.8,10.8,3.5c1.2,0.3,1.4-0.2,1.5-1.2c0.6-4,1.3-8,2-12c0.2-0.9,0-1.3-0.9-1.5c-3.8-0.7-7.4-1.8-10.9-3.4
				c-0.6-0.3-0.9-0.2-1,0.5c-0.2,1.2-0.4,2.4-0.6,3.6C68.5,59.9,68,63,67.5,66.1z M77,90.2c0.1-0.7-0.5-0.8-1.1-0.9
				c-3.6-0.7-7.1-1.8-10.5-3.3c-0.9-0.4-1.3-0.3-1.4,0.8c-0.6,4-1.3,8-2,12c-0.3,0.7,0.1,1.5,0.8,1.8c0,0,0,0,0,0
				c3.5,1.5,7.1,2.7,10.9,3.5c0.8,0.2,1-0.1,1.1-0.8c0.4-2.4,0.8-4.7,1.2-7C76.4,94.1,76.7,92.2,77,90.2z"/>
		</g>
		<g>
			<path class="st1" d="M92.5,2C142.4,2,183,42.6,183,92.5S142.4,183,92.5,183S2,142.4,2,92.5S42.6,2,92.5,2 M92.5,0
				C41.4,0,0,41.4,0,92.5S41.4,185,92.5,185S185,143.6,185,92.5S143.6,0,92.5,0L92.5,0z"/>
		</g>
		<circle class="st2" cx="92.5" cy="92.5" r="78"/>
	</g>
</g>
</svg>
