<?xml version="1.0" encoding="utf-8"?>
<!-- Generator: Adobe Illustrator 25.2.3, SVG Export Plug-In . SVG Version: 6.00 Build 0)  -->
<svg version="1.1" id="Capa_1" xmlns="http://www.w3.org/2000/svg" xmlns:xlink="http://www.w3.org/1999/xlink" x="0px" y="0px"
	 viewBox="0 0 185 185" style="enable-background:new 0 0 185 185;" xml:space="preserve">
<style type="text/css">
	.st0{fill:#BFBFBF;}
	.st1{fill:none;stroke:#A652CE;stroke-width:8;stroke-miterlimit:10;}
	.st2{fill:#A652CE;}
</style>
<g id="Capa_2_1_">
	<g id="Capa_1-2">
		<g>
			<path class="st0" d="M92.5,2C142.4,2,183,42.6,183,92.5S142.4,183,92.5,183S2,142.4,2,92.5S42.6,2,92.5,2 M92.5,0
				C41.4,0,0,41.4,0,92.5S41.4,185,92.5,185S185,143.6,185,92.5S143.6,0,92.5,0L92.5,0z"/>
		</g>
		<circle class="st1" cx="92.5" cy="92.5" r="78"/>
		<g id="bO8YVJ.tif">
			<path class="st2" d="M69.8,140.3c-0.3-0.1-0.6-0.3-0.9-0.4c-3.3-1.2-5.3-4.4-5.1-7.9c0-18.9,0-37.9,0-56.8c0-2.5,0.3-5-0.3-7.5
				c-2.5-0.7-5-0.2-7.5-0.3c-0.5,0-1,0-1.5,0c-2.4,0-2.9-0.5-2.9-2.9c0-3.6,0-7.2,0-10.8c-0.1-4.3,3.2-7.9,7.5-8c0.2,0,0.3,0,0.5,0
				c3.8,0,7.7,0,11.5,0h45.2c7.3,0,11.9,4.5,11.9,11.9c0,20.3,0,40.5,0,60.8v6.9c0,2.6,0,2.7,2.6,2.6c1.2,0,2.4,0,3.3,1v5.6
				c-0.9,2.8-3.1,5-5.9,5.9L69.8,140.3z M67.5,93.3v14.3c0,8.3,0,16.7,0,25c-0.2,2.3,1.5,4.2,3.7,4.4c0.1,0,0.2,0,0.4,0
				c2.4,0.1,4.3-1.8,4.4-4.2c0-0.1,0-0.1,0-0.2c0-0.5,0-1,0-1.5c0-2.9,0.4-3.3,3.3-3.3h43.2c2,0,2.1-0.1,2.1-2.1
				c0-22.9,0-45.9,0-68.9c0.3-4.1-2.9-7.6-6.9-7.8c-0.2,0-0.5,0-0.7,0c-16.4,0-32.8,0-49.1,0h-0.3c-1,0-1.2,0.4-0.8,1.3
				c0.6,1.6,0.9,3.4,0.8,5.2C67.5,68.1,67.5,80.7,67.5,93.3z M103.2,137c7.6,0,15.2,0,22.8,0c1.9,0.1,3.7-1,4.5-2.7
				c0.9-2,0.4-2.8-1.8-2.8c-15.6,0-31.2,0-46.8,0c-1.6,0-2.3,0.5-2.4,2.1c0,0.7-0.2,1.3-0.5,1.9c-0.8,1.4-0.1,1.6,1.2,1.6
				C87.9,137,95.5,137,103.2,137z M63.9,58c0-1.5,0-3,0-4.4c0-2.4-1.9-4.4-4.3-4.6c-2.4,0-4.4,2-4.4,4.4c-0.1,3,0,6,0,9
				c0,1,0.4,1.5,1.5,1.5c2,0,3.9,0,5.9,0c1.1,0,1.4-0.5,1.4-1.5C63.8,61,63.9,59.5,63.9,58z"/>
			<path class="st2" d="M70.1,111.2c-0.5-6.5,5.4-13.9,13.8-13.9c7.4,0,13.9,6.5,13.8,14.1c-0.1,7.7-6.3,13.8-14,13.8
				C76.5,125.1,69.7,119.1,70.1,111.2z M83.9,121.6c5.5,0.2,10.2-4.2,10.3-9.8c0-0.1,0-0.3,0-0.4c-0.1-6-4.2-10.5-10-10.5
				c-6.4,0-10.7,4.3-10.7,10.4C73.3,116.7,77.7,122.1,83.9,121.6z"/>
			<path class="st2" d="M96.6,76.6c-7.7,0-15.4,0-23.2,0c-1.4,0-2.1-0.3-2.1-1.9c0-1.4,0.6-1.8,1.9-1.8c4.4,0,8.9,0,13.3,0h33.5
				c1.1,0,2.1,0,2.1,1.6c0,1.8-0.2,2.1-2,2.1L96.6,76.6z"/>
			<path class="st2" d="M96.8,60.8h23.3c1.9,0,2.1,0.3,2,2.2c0,1-0.5,1.4-1.4,1.4c-0.2,0-0.4,0-0.7,0H73.7c-2,0-2.2-0.3-2.2-2.1
				c0-1.1,0.5-1.6,1.6-1.5c2.5,0,4.9,0,7.4,0L96.8,60.8z"/>
			<path class="st2" d="M96.8,67h23.3c1.9,0,2.1,0.3,2,2.2c0.1,0.7-0.5,1.3-1.2,1.4c-0.1,0-0.2,0-0.2,0h-1H73.8
				c-1.2,0-2.3,0.1-2.4-1.7c0-1.4,0.4-2,1.9-2C81.2,67,89,67,96.8,67z"/>
			<path class="st2" d="M96.8,79.1c7.8,0,15.5,0,23.3,0c1.2,0,2.1,0.1,2.1,1.7s-0.6,2-2.1,2c-15.5,0-31.1,0-46.6,0
				c-1.9,0-2.6-1.1-2-2.9c0.4-1,1.2-0.7,1.9-0.7c7.4,0,14.8,0,22.1,0L96.8,79.1z"/>
			<path class="st2" d="M96.6,58.2H73.3c-1.8,0-2.1-0.4-1.9-2.2c0.1-0.8,0.4-1.2,1.2-1.2h0.5c15.8,0,31.5,0,47.2,0
				c1.4,0,1.8,0.5,1.8,1.8c0,1.6-0.9,1.6-2.1,1.6L96.6,58.2z"/>
			<path class="st2" d="M93.6,88.8h-20c-2,0-2.4-0.4-2.1-2.4c0-0.6,0.5-1.2,1.1-1.2c0,0,0.1,0,0.1,0h1c13.3,0,26.7,0,40,0
				c1.4,0,2.3,0.1,2.3,1.9c0,1.4-0.6,1.8-1.9,1.8C107.2,88.7,100.4,88.8,93.6,88.8z"/>
			<path class="st2" d="M92.2,94.7H73.5c-1.9,0-2.2-0.4-2-2.2c0.1-0.7,0.4-1.1,1.1-1.1c0.3,0,0.6,0,0.8,0c12.6,0,25.1,0,37.7,0
				c1.3,0,1.9,0.3,1.9,1.8s-0.8,1.7-2,1.7C104.7,94.7,98.4,94.7,92.2,94.7z"/>
			<path class="st2" d="M115.2,125.2c-2.6,0.1-5,0-6.9-2.2c-0.5-0.6-1.1-0.2-1.6,0.2c-1.4,0.9-3,1.5-4.7,1.9
				c-0.8,0.1-1.6,0.2-1.5-0.9s-0.6-2.3,1-2.4c2.3-0.2,3.7-1.6,5.1-3.2c0.5-0.6,1.1-1.4,2-1.2s1.3,1,1.5,2c0.4,1.9,1.2,2.4,3.1,2.3
				c1.5-0.1,3,0,4.4,0s1.6,0.8,1.6,1.9s-0.4,1.8-1.6,1.7C116.7,125.2,116,125.2,115.2,125.2z"/>
			<path class="st2" d="M83.7,119c-4.3,0-7.7-3.5-7.7-7.7c0,0,0,0,0,0c0-4.3,3.6-7.8,7.9-7.8c4.3,0.1,7.8,3.5,7.9,7.8
				c0,4.3-3.5,7.7-7.8,7.7C83.9,119,83.8,119,83.7,119z M79.7,111.3c-0.1,2.3,1.7,4.3,4,4.3c0,0,0.1,0,0.1,0c2.4,0,4.3-2,4.3-4.4
				c0,0,0,0,0-0.1c-0.1-2.3-2-4.2-4.3-4.3c-2.3,0-4.2,1.8-4.2,4.1C79.7,111.1,79.7,111.2,79.7,111.3L79.7,111.3z"/>
		</g>
	</g>
</g>
</svg>
