<?xml version="1.0" encoding="utf-8"?>
<!-- Generator: Adobe Illustrator 25.2.3, SVG Export Plug-In . SVG Version: 6.00 Build 0)  -->
<svg version="1.1" id="Capa_1" xmlns="http://www.w3.org/2000/svg" xmlns:xlink="http://www.w3.org/1999/xlink" x="0px" y="0px"
	 viewBox="0 0 185 185" style="enable-background:new 0 0 185 185;" xml:space="preserve">
<style type="text/css">
	.st0{fill:#E82B89;}
	.st1{fill:#BFBFBF;}
	.st2{fill:none;stroke:#E82B89;stroke-width:8;stroke-miterlimit:10;}
</style>
<g id="yzVDlf">
	<path class="st0" d="M135.9,96.1c0,6.7,0,13.5,0,20.2c0,5.3-4.3,9.7-9.7,9.7c0,0-0.1,0-0.1,0c-2,0-4,0.1-6,0c-1,0-1.2,0.3-1.2,1.3
		c0.1,2.9,0,5.7,0,8.6c0,1.2-0.1,1.3-1.2,0.8l-13.5-6.4c-2.5-1.2-5.1-2.4-7.5-3.6c-0.8-0.4-1.6-0.6-2.5-0.6c-9.3,0-18.5,0-27.8,0
		c-3,0-6,0.2-9.1-0.2c-4.7-0.6-8.3-4.6-8.3-9.4c0-13.5,0-27,0-40.5c-0.2-5.3,3.9-9.7,9.2-9.9c0.1,0,0.3,0,0.4,0
		c5.2-0.1,10.4,0,15.6,0c0.7,0,1,0.3,1,1c0,1,0,1.9,0,2.9c0,1.3,0,1.3-1.3,1.3c-5,0-10,0.1-15,0c-2.6-0.1-4.7,1.9-4.8,4.5
		c0,0.1,0,0.2,0,0.3c0,13.4,0,26.7,0,40.1c0,2.9,1.8,4.7,4.8,4.7h35.9c1.1,0,2.1,0.2,3.1,0.7c4.9,2.3,9.7,4.7,14.6,7
		c1.2,0.6,1.2,0.5,1.2-0.8c0-1.8,0-3.6,0-5.4c0-1.5,0-1.5,1.5-1.5h10.8c2.4,0.2,4.5-1.6,4.7-4.1c0-0.2,0-0.4,0-0.6
		c0-13.4,0-26.8,0-40.2c0-2.9-1.9-4.7-4.8-4.7c-5.1,0-10.1,0-15.2,0c-0.9,0-1.3-0.2-1.2-1.2s0-2.1,0-3.2c0-0.5,0.2-0.8,0.7-0.8
		c5.7,0.1,11.5-0.4,17.2,0.2c4.9,0.5,8.2,4.6,8.2,9.4C135.9,82.5,135.9,89.3,135.9,96.1z"/>
	<path class="st0" d="M93.6,96.1V76.2c0-1.4,0-1.4,1.4-1.4c0.5,0,1.1,0,1.6,0c0.3,0,0.6,0.1,0.7-0.2c0.1-0.3-0.2-0.5-0.3-0.7
		c-1-1.3-2-2.6-3-3.9c-0.3-0.4-0.5-0.9-0.4-1.4c0-6.5,0-13,0-19.5c0-0.8,0.3-1.1,1.1-1.1c3.9,0,7.9,0,11.8,0c0.8,0,1.1,0.3,1.1,1.1
		c0,10,0,20,0,30.1c-0.1,0.8-0.4,1.6-1,2.2c-0.8,1.1-1.6,2.1-2.4,3.2c-0.4,0.5-0.2,0.7,0.3,0.7h1.2c1.9,0,1.9,0,1.9,1.8
		c0,3.3,0,6.6,0,9.9c0,6.4,0,12.7,0,19.1c0,1.3,0,1.3-1.3,1.3c-3.8,0-7.6,0-11.3,0c-1.3,0-1.3-0.1-1.3-1.4V96.1z"/>
	<path class="st0" d="M77.5,107.2c0-3,0-6,0-9.1c0-1,0.3-1.3,1.3-1.2c0.6,0,1.3,0,1.9,0c0.2,0,0.5,0,0.6-0.1
		c0.2-0.2-0.1-0.4-0.2-0.6c-0.9-1.2-1.9-2.5-2.8-3.7c-0.4-0.5-0.7-1.2-0.7-1.9c0-9.3,0-18.6,0-27.9c0-1.4,0.1-1.4,1.4-1.4
		c3.7,0,7.5,0,11.2,0c1.3,0,1.4,0.1,1.4,1.3c0,2,0,4,0,6.1c0,0.5-0.1,1-0.5,1.4c-1,1.4-2,2.7-3,4c-0.1,0.2-0.4,0.3-0.2,0.6
		s0.4,0.2,0.6,0.2c0.6,0,1.2,0,1.8,0c1-0.1,1.3,0.3,1.3,1.3c0,4.4,0,9,0,13.5c0,8.8,0,17.6,0,26.4c0,1.4,0,1.5-1.5,1.5
		c-3.7,0-7.5,0-11.2,0c-0.9,0-1.3-0.3-1.3-1.2C77.5,113.2,77.4,110.2,77.5,107.2L77.5,107.2z"/>
	<path class="st0" d="M123.9,96.1V116c0,1.4,0,1.4-1.4,1.4c-3.8,0-7.7,0-11.6,0c-0.9,0-1.2-0.3-1.2-1.2c0-9.9,0-19.7,0-29.6
		c0-1.4,0.1-1.4,1.4-1.4c0.6,0,1.1,0,1.7,0c0.2,0,0.5,0.1,0.6-0.1s-0.1-0.4-0.3-0.6c-1-1.3-2-2.7-3-4c-0.3-0.3-0.5-0.7-0.5-1.2
		c0-1.2,0-2.5,0-3.7c0-0.7,0.3-1,1-1c4.1,0,8.1,0,12.1,0c0.9,0,1,0.4,1,1.2c0,4.8,0,9.5,0,14.3C123.8,92.2,123.8,94.1,123.9,96.1
		L123.9,96.1z"/>
	<path class="st0" d="M61.2,101.9c0-4.7,0-9.4,0-14.1c0-1.4,0-1.4,1.4-1.4c3.8,0,7.6,0,11.4,0c0.9,0,1.4,0.3,1.3,1.2
		c0,0.3,0,0.7,0,1c0.4,2.4-0.7,4.2-2.2,5.9c-0.5,0.6-0.9,1.2-1.4,1.8c-0.3,0.5-0.2,0.7,0.3,0.7c0.7,0,1.4,0,2.2,0s1.1,0.3,1.1,1.1
		c0,5.4,0,10.8,0,16.2c0,0.7,0,1.4,0,2.2s-0.2,1.1-1,1.1c-4,0-7.9,0-11.9,0c-1,0-1.2-0.4-1.2-1.2C61.1,111.5,61.1,106.7,61.2,101.9
		L61.2,101.9z"/>
</g>
<g>
	<path class="st1" d="M92.5,2C142.4,2,183,42.6,183,92.5S142.4,183,92.5,183S2,142.4,2,92.5S42.6,2,92.5,2 M92.5,0
		C41.4,0,0,41.4,0,92.5S41.4,185,92.5,185S185,143.6,185,92.5S143.6,0,92.5,0L92.5,0z"/>
</g>
<circle class="st2" cx="92.5" cy="92.5" r="78"/>
</svg>
